<svg xmlns="http://www.w3.org/2000/svg" width="27.375" height="21.899" viewBox="0 0 27.375 21.899">
  <path id="back-time-icon" d="M21.215,9.581a6.159,6.159,0,1,0,6.159,6.159A6.156,6.156,0,0,0,21.215,9.581Zm2.737,6.428a.417.417,0,0,1-.415.415H20.947a.417.417,0,0,1-.415-.415V12.734a.417.417,0,0,1,.415-.415h.538a.417.417,0,0,1,.415.415v2.322h1.638a.417.417,0,0,1,.415.415Zm-2.737-7.8c.231,0,.459.014.684.035V6.159a2.105,2.105,0,0,0-2.053-2.053H16.425V2.053A2.105,2.105,0,0,0,14.372,0H7.528A2.105,2.105,0,0,0,5.475,2.053V4.106H2.053A2.105,2.105,0,0,0,0,6.159V9.581H16.9A7.482,7.482,0,0,1,21.215,8.212ZM13.687,4.106H8.212V2.737h5.475Zm.292,9.581H8.9A.684.684,0,0,1,8.212,13V10.95H0v6.159a2.105,2.105,0,0,0,2.053,2.053H14.518a7.427,7.427,0,0,1-.539-5.475Z" fill="#fff"/>
</svg>
