<svg xmlns="http://www.w3.org/2000/svg" width="24.759" height="22.854" viewBox="0 0 24.759 22.854">
  <path id="build-icon" d="M16.052,9.577V4.5H3.375V27.354H28.134V9.577ZM8.446,24.813H5.91V22.272H8.446Zm0-5.077H5.91V17.195H8.446Zm0-5.077H5.91V12.118H8.446Zm0-5.083H5.91V7.035H8.446Zm5.071,15.236H10.981V22.272h2.535Zm0-5.077H10.981V17.195h2.535Zm0-5.077H10.981V12.118h2.535Zm0-5.083H10.981V7.035h2.535ZM25.6,24.813H16.052V22.272h2.535V19.736H16.052V17.195h2.535V14.653H16.052V12.118H25.6ZM23.361,14.659H20.825V17.2h2.535Zm0,5.077H20.825v2.541h2.535Z" transform="translate(-3.375 -4.5)" fill="#fff"/>
</svg>
