<svg xmlns="http://www.w3.org/2000/svg" width="85.507" height="107.021" viewBox="0 0 85.507 107.021">
  <g id="logo-modn-white" transform="translate(0)">
    <path id="path0" d="M129.491,49.354c-.562,1.725-.582,2.03-.2,3.014.255.665.288,1.132.4,5.558.143,5.831.3,9.272.581,12.709.116,1.42.266,3.326.333,4.237s.179,2.1.249,2.648.221,1.8.336,2.78c.225,1.916.4,3.151.589,4.1.572,2.917.744,2.551-1.77,3.768-5.39,2.61-7.923,1.6-8.747-3.5-.112-.692-.256-1.556-.321-1.919-.151-.846-.491-3-.595-3.773-.044-.328-.133-.8-.2-1.059s-.213-1.059-.332-1.787-.27-1.532-.337-1.787-.221-.91-.342-1.456a33.612,33.612,0,0,0-3.734-10.1c-1.009-1.776-1.223-1.893-1.387-.759a9.444,9.444,0,0,1-.232,1.133,4.485,4.485,0,0,0,.2,2.811,6.676,6.676,0,0,1,.331.752c0,.036.209.518.463,1.069a10.073,10.073,0,0,1,.463,1.1,3.679,3.679,0,0,0,.268.653,4.921,4.921,0,0,1,.35.985,1.848,1.848,0,0,0,.183.562,49.779,49.779,0,0,1,1.571,5.163c1.178,4.793,1.03,5.941-1.1,8.559-5.252,6.449-14.618,10.721-17.3,7.89-.84-.888-1.333-2.7-.776-2.844a38.252,38.252,0,0,0,4.224-2.182c7.991-4.738,10.536-9.671,8.008-15.527-.094-.219-.326-.768-.515-1.222-.323-.775-.777-1.8-1.233-2.782-.254-.549-.147-.9.217-.7.332.178,1.467.18,1.467,0a14.405,14.405,0,0,0-2.249-2.552,15.569,15.569,0,0,1-1.171-1.291c-.237-.675-.755.84-.909,2.656-.07.826-.054.887.377,1.456a23.47,23.47,0,0,1,2.166,3.706c2.356,4.783.92,8.733-4.238,11.658-1.547.877-2.837,1.58-2.9,1.58-.04,0-.624.268-1.3.6-1.3.63-1.56.7-1.56.425,0-.186.606-2.571.753-2.963.077-.2.059-.216-.115-.075a3.6,3.6,0,0,0-.5,1.125c-.635,2.076-.693,2.215-1.044,2.461a16.173,16.173,0,0,1-5.042,1.339c-4.5.556-7.549-.316-9.885-2.823a10.387,10.387,0,0,1-1.91-2.717,3.4,3.4,0,0,0-.255-.625c-.7-1.443-.639-5.255.106-7a4.694,4.694,0,0,0,.344-1.636c-.107-.107-.319.238-.413.669-.173.795-.811.972-1.272.353-.513-.688-.538-1.58-.105-3.731a3.09,3.09,0,0,0,.091-.927c-.035-.087-.069-.005-.075.18a.907.907,0,0,1-.122.463,9.792,9.792,0,0,0-.777,3.936c.144,1.343.351,1.727,1,1.855l.574.113-.087,1.281c-.048.7-.142,1.6-.21,2a11.434,11.434,0,0,0,.881,6.069,4.74,4.74,0,0,1,.32.825,14.987,14.987,0,0,0,2.031,2.878,9.537,9.537,0,0,0,7.333,2.8c2.61-.049,5.618-.578,6.474-1.138.578-.379.711-.081.711,1.606,0,6.22,4.884,7.06,12.38,2.128,4.073-2.68,5.675-4.5,8.109-9.2.927-1.792,1.256-2.138,1.325-1.39a30.093,30.093,0,0,0,1.516,7.314c1.456,2.988,5.253,3.319,9.738.849.749-.412,1.548-.851,1.776-.975.522-.284.53-.279,1.1.8,1.453,2.766,4.366,4.332,6.063,3.259,2.205-1.4,2.238-6.7.054-8.69-.516-.47-.527-.5-.323-.807,1.072-1.636,1.808-6.933,1.551-11.162-.084-1.378-.2-3.488-.263-4.689s-.143-2.423-.182-2.714-.134-1.572-.21-2.846-.172-2.741-.212-3.259c-.1-1.265.129-1.377,1.016-.5,1.2,1.182,1.045.241-.733-4.446-.318-.837-.767-2.029-1-2.648-.641-1.713-.645-1.712-1.365.467l-.482,1.46.249.823a19.842,19.842,0,0,1,.474,4.36c.1,2.835.344,7.261.457,8.379.07.692.19,2.509.266,4.038s.208,3.641.294,4.692a58.49,58.49,0,0,1-.2,8.167,4.375,4.375,0,0,1-1.071-.237,3.508,3.508,0,0,0-3.177.425c-.734.456-.822.42-1-.409-.458-2.14-.562-2.682-.685-3.569-.075-.546-.188-1.529-.251-2.185s-.207-2.174-.321-3.376-.265-3.227-.336-4.5c-.132-2.367-.369-6.24-.463-7.546-.029-.4-.1-2.441-.149-4.534-.11-4.359-.121-4.322.958-3.177l.592.629-.072-.6a22.765,22.765,0,0,0-1.6-5.362c-.4-1.036-1.121-3.024-1.121-3.077,0-.51-.46.285-.841,1.455M146.559,66.78a7.009,7.009,0,0,0-.815,4.46,26.977,26.977,0,0,1,.331,3.433c.182,3.518.24,4.379.486,7.149.11,1.238.261,3,.336,3.906s.183,2.161.241,2.78c.8,8.5.714,15.561-.207,17.191-1.106,1.959-5.474,2.359-7.765.712-1.3-.938-1.3-.941,1.532-2.337l2.281-1.123.693-1.316c.892-1.694.892-1.884,0-2.454-3.969-2.53-9.381-3.1-14.794-1.548-2.014.576-2.383.864-2.977,2.325a11.091,11.091,0,0,1-.472,1.059,2.586,2.586,0,0,0-.188.7c-.11.668-.055.684.99.282q2.516-.969,5.387,1.8c1.12,1.081,1.125,1.137.128,1.582l-1.345.6c-.364.161-.84.377-1.059.479s-1.082.477-1.92.833a62.17,62.17,0,0,0-6.845,3.3,5.663,5.663,0,0,1-.761.433,23.3,23.3,0,0,0-3.649,2.913c-.525.515-1.709,1.909-3.009,3.545-4.45,5.6-8.988,5.612-8.959.029a15.759,15.759,0,0,1,.582-4.17c.06-.146.208-.6.327-1.006.238-.808.556-1.169,1.861-2.113a10.122,10.122,0,0,0,2.581-2.686c.573-.928.829-.933.943-.019a4.391,4.391,0,0,0,2.081,3.048l.714.345c1.007.495,3.267-.2,4.152-1.284,1.556-1.9,2.044-5.875,1.063-8.657-.649-1.839-.768-1.877-1.191-.378-.13.458-.29.97-.358,1.138a3,3,0,0,0,.4,2.43c.82,1.742.82,1.742-.012,2.265-1.918,1.206-4.571.926-5.341-.564a7.4,7.4,0,0,1-.07-3.1c.252-.663-.3-.365-1.122.6-2.9,3.425-4.794,4.485-8.021,4.483-2.748,0-4.368-1.162-6-4.3-1.263-2.425-2.341-2.934-4.091-1.933s-4.737,5.491-5.713,8.606c-.055.175-.336.83-.624,1.456s-.705,1.574-.927,2.1c-.294.706-.461.956-.619.926-.226-.043-.219,0-.525-2.819-.079-.728-.265-2.128-.413-3.111-.3-2.013-.488-3.4-.612-4.567a4.716,4.716,0,0,0-.153-.908,11.912,11.912,0,0,0-1.031,3.222c.075.235.159.879.544,4.173.595,5.083.531,5.61-.644,5.315-2.4-.6-3.47-4.875-3.1-12.332l.092-1.854-.314.9c-.462,1.32-.862,1.652-1.551,1.283-.925-.5-.7-3.621.423-5.851a1.294,1.294,0,0,0,.116-.489.442.442,0,0,1,.124-.335.413.413,0,0,0,.132-.306c0-.126.045-.925.091-1.776.14-2.588-1.049-5.911-2.285-6.385-.36-.138-1.007.848-.768,1.172.069.094.407.519.751.946a7.35,7.35,0,0,1,1.288,7.808c-1.516,4.421-1.256,7.636.536,6.611.594-.34.6-.334.6,2.813a35.193,35.193,0,0,0,.152,3.74c.824,4.2,2.555,6.607,4.754,6.617.663,0,.74.22.854,2.421.2,3.834.411,11.157.366,12.739l-.045,1.589-.783,1.583c-1.552,3.135-3.032,4.014-4.823,2.865-1.962-1.259-2.689-5.187-2.218-11.981l.118-1.708-.449.1c-1.9.408-2,.229-1.114-1.976,1.912-4.78,1.677-8.33-.759-11.44-.711-.908-.807-.933-1.2-.317-.369.577-.362.6.5,1.745,1.793,2.393,2.068,4.8.952,8.338a9.914,9.914,0,0,0-.681,4.532c.346,1.633.531,1.856,1.34,1.608.611-.187.574-.428.629,4.157a38.019,38.019,0,0,0,.2,4.55c.082.255.246.88.365,1.39.569,2.433,2.465,4.568,4.055,4.567,1.044,0,1.717-.645,3.075-2.945,1.06-1.8,1.2-1.764,1.316.3.364,6.433,1.7,9.1,5.61,11.223a10.1,10.1,0,0,0,1.655.756,2.093,2.093,0,0,1,.562.188,8.315,8.315,0,0,0,1.125.393l2.052.614a15.613,15.613,0,0,0,2.383.452c.728.075,1.83.208,2.449.3a94.289,94.289,0,0,0,11.121,0c.91-.093,2.519-.254,3.575-.359s2.217-.252,2.581-.329c.849-.178,1.885-.358,3.013-.524.492-.073,1.147-.2,1.456-.279a17.382,17.382,0,0,1,2.084-.458,9.654,9.654,0,0,0,1.324-.329c.4-.133.907-.28,1.125-.327.456-.1,2.782-.822,3.177-.989.146-.062.533-.216.86-.344s.864-.349,1.192-.492.8-.348,1.059-.455.761-.335,1.125-.506,1.228-.561,1.92-.868,1.508-.7,1.814-.881l.557-.322,1,1.524c3.1,4.714,8.337,5,10.493.576,1.432-2.94,2.048-9.876,1.418-15.982-.078-.758-.267-3.353-.519-7.149-.109-1.638-.29-4.081-.4-5.428-.418-5.022-.31-5.682.7-4.3.406.555.956.811.956.444a9.793,9.793,0,0,0-.366-1.438c-.039-.109-.244-.675-.455-1.258s-.5-1.387-.636-1.787a15.238,15.238,0,0,0-.84-2.209.494.494,0,0,1-.085-.3,4.323,4.323,0,0,0-.849-1.825c-.079.026-.164.192-.19.368a1.185,1.185,0,0,1-.15.453,2.046,2.046,0,0,0-.2.6,2.731,2.731,0,0,1-.18.6,2.646,2.646,0,0,0-.3,2.021c.293.578.42,1.7.483,4.306.037,1.545.125,3.374.195,4.066.113,1.121.274,3.262.466,6.222.171,2.638.5,6.7.748,9.267.976,10.064.1,12.664-4.272,12.62a5.945,5.945,0,0,1-2.635-.536c-1.711-.691-2.669-1.776-2.034-2.3a3.756,3.756,0,0,0,.537-.687c1.918-3.039,2.316-6.92.961-9.391a1.091,1.091,0,0,1-.126-.43c0-.11-.045-.2-.1-.2a2.158,2.158,0,0,1-.473-.633c-.713-1.2-1.959-1.646-2.826-1.01a6.078,6.078,0,0,0-1.406,1.976c-.032.146-.188.734-.346,1.308a12.386,12.386,0,0,0-.1,4.98c.848,3.012,1.1,2.583-2.5,4.244-.655.3-1.251.565-1.324.582a9.158,9.158,0,0,0-1.223.483,3.424,3.424,0,0,1-.691.25,11.254,11.254,0,0,0-1.661.525,7.791,7.791,0,0,1-.861.266c-.328.083-.774.2-.993.267a20.539,20.539,0,0,1-2.853.662.877.877,0,0,0-.463.113,3.706,3.706,0,0,1-.92.277l-1.416.3a2.375,2.375,0,0,1-.9.043.554.554,0,0,0-.438.033c-.493.375-5.1.9-10.849,1.238a60.167,60.167,0,0,1-15.875-1.4c-3.52-.83-6.394-3.449-6.976-6.356-.073-.364-.222-1.049-.331-1.523-.8-3.455-1-6.993-.463-7.962,1.391-2.5,3.484-4.35,4.928-4.35.888,0,1.27.477,3.112,3.887,1.713,3.17,5.315,3.891,9.356,1.873a8.078,8.078,0,0,0,1.457-.869.772.772,0,0,1,.377-.258,2.761,2.761,0,0,0,.744-.562c2.33-2.185,2.444-2.226,2.547-.926a5.193,5.193,0,0,0,1.565,3.229l.649.614-.262,1.04c-.385,1.528-.158,1.951.323.6.122-.341.3-.811.407-1.045l.186-.425.766.271c2.458.869,6.416.808,11.225-.173.925-.189,3.256-.779,3.575-.906.146-.058.92-.327,1.721-.6a23,23,0,0,0,3.177-1.287c.146-.079.443-.238.662-.353a2.953,2.953,0,0,0,.463-.281,5.693,5.693,0,0,1,.6-.393c1.567-.946,3.376-3.366,3.376-4.516,0-.136.045-.247.1-.247a12.948,12.948,0,0,0-.019-3.009.585.585,0,0,1-.08-.329,21.33,21.33,0,0,0-1.813-4.82c-.348-.669-.178-.863.666-.764,1.057.124,1.077-.1.091-.989-.453-.411-1.276-1.179-1.827-1.707-1.377-1.32-1.389-1.306-1.694,1.847-.081.834-.066.906.249,1.191a34.976,34.976,0,0,1,2.539,4.806c.12.291.273.649.34.794,1.194,2.612.2,3.986-4.111,5.7-.692.274-1.586.635-1.986.8q-2.732,1.132-.265-1.4a7.811,7.811,0,0,0,1.465-2.844c.087-.291.209-.666.273-.834a7.985,7.985,0,0,0,0-2.643l-.476-.984a8.2,8.2,0,0,0-3.341-3.209l-1.355-.65a6.048,6.048,0,0,0-1.6-.154,3.742,3.742,0,0,0-2.282.479,1.071,1.071,0,0,1-.366.117,12.369,12.369,0,0,0-2.584,2,37.779,37.779,0,0,0-4.64,6.949c-1.181,2.169-1.711,3.183-1.984,3.793s-.681.652-1.45.124c-.973-.669-1.8-2.375-1.442-2.961.3-.489-.033-1.265-.418-.97-.142.109-.676.526-1.185.927a22.874,22.874,0,0,1-4.7,2.482,7.461,7.461,0,0,1-3.177.559c-2.932-.009-3.962-.808-6.282-4.877-1.209-2.121-2.735-2.491-4.257-1.034a26.869,26.869,0,0,0-2.835,3.6c-.894,1.225-1.008.983-1.112-2.383-.035-1.129-.122-2.5-.193-3.045-.314-2.421-.462-7.089-.239-7.494.116-.21.459-.919.763-1.575s.872-1.861,1.264-2.68.712-1.518.712-1.553c0-.657,2.017-3.892,3.072-4.927,2.253-2.209,3.563-1.923,5.11,1.116,1.965,3.861,2.962,4.53,6.38,4.284,1.655-.119,1.67-.111,1.386.8-.671,2.149-.774,6.186-.2,7.6.06.146.208.592.33.993.665,2.19,2.066,3.438,3.866,3.441a1.918,1.918,0,0,0,.9-.131.539.539,0,0,1,.4-.132.54.54,0,0,0,.391-.122.9.9,0,0,1,.45-.2,12.555,12.555,0,0,0,3.34-3.084c.6-.709,1.185-1.381,1.3-1.492s.538-.588.938-1.059a20.1,20.1,0,0,1,7.613-5.657c2.1-1,1.885-.9,4.435-2.049,1.8-.813,2.456-1.122,4.577-2.166,2.593-1.277,2.693-1.293,3.5-.574,6.23,5.555,12.027,3.978,13.177-3.584a34.968,34.968,0,0,0,.415-7.943,154.055,154.055,0,0,0-1.02-15.622c-.622-6.286-.557-6.867.629-5.646.695.715.831.754.831.239,0-.371-.124-.755-1.461-4.522-.375-1.056-.712-2.039-.749-2.185a7.071,7.071,0,0,0-.319-.826,3.579,3.579,0,0,1-.251-.679c0-.2-.366-.44-.453-.3m6.94,13.6a15.134,15.134,0,0,1-.8,2.47,1.531,1.531,0,0,0,0,1.187,18.53,18.53,0,0,1,.264,2.422c.141,2.108.553,9.124.6,10.26.014.328.067,1.579.117,2.78s.147,2.84.216,3.641.189,2.708.266,4.237.2,3.882.275,5.229.193,3.611.264,5.031c.179,3.565.222,4.288.384,6.487.077,1.056.2,3.32.279,5.031s.2,4,.265,5.1c.276,4.346.373,6.09.51,9.2.079,1.784.2,3.839.276,4.567s.132,1.815.132,2.416q0,2.449.84-.3c.885-2.894,1.1-9.785.557-17.541-.115-1.638-.264-3.961-.331-5.163s-.184-2.78-.261-3.508c-.143-1.357-.206-2.265-.41-5.958-.154-2.795-.348-5.691-.523-7.811-.152-1.847-.208-2.712-.33-5.1-.119-2.324-.326-5.215-.479-6.686-.076-.728-.2-2.366-.265-3.641-.162-2.956-.219-3.729-.4-5.4-.193-1.788.035-2.18.773-1.33,1.24,1.429,1.339,1.251.614-1.11-.185-.6-.477-1.485-.65-1.958-.926-2.545-1.166-3.184-1.48-3.939s-.7-1.1-.7-.618M126.161,88.9l-.4.1.356.016a.584.584,0,0,0,.438-.117c.045-.073.063-.126.041-.117s-.22.061-.438.117m12.322.648c1.961.891,1,2.2-1.111,1.519-1.173-.379-2.076-1.429-1.448-1.682a5.53,5.53,0,0,1,2.559.163m-.334,11.087c1.313.681,1.314.822.009,1.487-.581.3-1.255.659-1.5.807-.642.392-.914.336-1.557-.319a11.357,11.357,0,0,0-1.413-1.158c-1.614-1.1-1.1-1.461,1.943-1.371a4.05,4.05,0,0,1,2.514.555m12.6,16.33c0,.255.027.359.061.232a1.088,1.088,0,0,0,0-.463c-.033-.128-.061-.023-.061.232m-26.236,5.5c3.527.8,6.425,4.012,4.972,5.508a23.125,23.125,0,0,1-2.534,2.093,6.532,6.532,0,0,0-.829.485,28.556,28.556,0,0,1-3.949,2.03,1.183,1.183,0,0,0-.49.2c-1.223.8-4.8,1.183-6.992.746-.775-.154-1.445-.28-1.489-.28-.122,0-.1-.46.035-.6a11.586,11.586,0,0,0,.624-1.118c3.415-6.665,7.164-9.852,10.654-9.058m15.731,14.959a7.646,7.646,0,0,1,1.87,3.374c0,.543-.593,1.153-1.967,2.024-1.438.912-1.472.913-1.825.05-.156-.381-.438-1.05-.626-1.487-1.253-2.908.568-5.741,2.547-3.961m15.537,10.117c0,.255.027.359.061.232a1.089,1.089,0,0,0,0-.464c-.033-.128-.061-.023-.061.232" transform="translate(-72.733 -47.741)" fill="#fff" fill-rule="evenodd"/>
    <path id="path1" d="M131.332,49.984a4.91,4.91,0,0,0-2.03,2.9c0,.644,1.131,2.179,1.605,2.179.354,0-.436.919-1.539,1.79l-.794.628c-.443.352-3.627,2.371-5.593,3.546-1.178.7-.594.839,1.555.36a11.181,11.181,0,0,0,7.014-5.3c.326-.593.419-.607.858-.134.413.446.733.312.895-.374a3.291,3.291,0,0,1,.246-.7c.116-.2.048-.329-.4-.745l-.543-.5.156-.579c.637-2.363-.017-3.776-1.427-3.08m.579,1.919c.27.447.137,1.315-.2,1.3-.857-.037-1.505-.907-1.029-1.383a.721.721,0,0,1,1.229.082m-24.895,7.112a3.83,3.83,0,0,0-.476.96,40.086,40.086,0,0,0-1.327,4,1.341,1.341,0,0,1-.144.5,4.333,4.333,0,0,0-.047,2.382.512.512,0,0,1,.186.321c0,.353.756.514,1.563.333,2.254-.5,2.823-3.738,1-5.668-.787-.833-.848-1.088-.443-1.881.465-.913.251-1.57-.309-.951m.131,4.36c.9.675,1.105.9,1.105,1.2,0,.706-1.993,1.55-2.489,1.054-.416-.416.118-2.754.628-2.754a4.325,4.325,0,0,1,.756.5m31.746,6.288a1.731,1.731,0,0,1-.233.475c-.977,1.218-1.489,6.051-.712,6.719,1.011.869,2.362-.338,2.338-2.089l0-.305-.307.349c-.683.776-1.03.8-1.482.122l-.345-.522.15-1.4a9.392,9.392,0,0,1,.394-1.967c.249-.58.485-1.679.362-1.679-.038,0-.11.134-.16.3m-31.8,2.846a13.425,13.425,0,0,0-1.225,2.6c0,.112.164.309.364.437a8.952,8.952,0,0,1,1.027.748,7.8,7.8,0,0,0,1.746,1.008,1.667,1.667,0,0,0,.394-.629c.158-.345.441-.96.629-1.367.472-1.022.6-.8-1.328-2.172-.309-.218-.715-.531-.9-.7-.425-.37-.4-.372-.7.066m24.445,21.518c-.649.553-1.052,1.655-1.254,3.428-.129,1.134-.476,1.192-.654.108-.293-1.8-1.581-3.342-2.412-2.9-1.038.556-.518,1.97.724,1.97.477,0,1.482,2.2,1.488,3.261,0,.792.575.683.777-.149.071-.291.216-.857.322-1.258a12.439,12.439,0,0,0,.269-1.324c.188-1.477.692-2.083,1.413-1.7l.462.246.093-.349c.3-1.105-.494-1.962-1.23-1.335M99.55,97.067a12.336,12.336,0,0,0-.881,1.724c-.147.452-.452.369-1.487-.4a14.777,14.777,0,0,0-1.242-.866,3.18,3.18,0,0,1-.478-.291c-.273-.2-.3-.168-1.034,1.322-.882,1.788-.958,1.517.745,2.662a14.482,14.482,0,0,1,1.407,1.016c.161.362.5.005,1.149-1.191.6-1.115.524-1.084,1.27-.521a9.347,9.347,0,0,0,2.281,1.414,3.732,3.732,0,0,0,1.014-1.772.257.257,0,0,1,.123-.236c.673-.242-.06-1.157-2.127-2.654-.587-.425-.571-.421-.74-.2m23.132,17.067a.722.722,0,0,1-.183.364,15.044,15.044,0,0,0-1.141,2.528,14.346,14.346,0,0,0,3.238,2.224c.033-.039.493-1.03,1.062-2.284.327-.722.268-.794-1.719-2.109a5.428,5.428,0,0,1-.844-.659c-.211-.256-.414-.288-.414-.066m-14.827,3.618c-.634,1.233-.646,1.244-.993.86a.854.854,0,0,0-.345-.265,1.566,1.566,0,0,1-.476-.345,8.216,8.216,0,0,0-1.854-1.244,18.331,18.331,0,0,0-1.5,3.075c0,.053.226.211.5.35a19.641,19.641,0,0,1,2.38,1.739c.17.143.7-.09.7-.307,0-.648,1.036-2.038,1.255-1.684a1.811,1.811,0,0,0,.537.346c.252.12.458.27.458.335a.136.136,0,0,0,.148.117,3.016,3.016,0,0,1,.779.463c.955.7,1.064.623,1.785-1.258.126-.328.28-.7.343-.819.128-.25-.433-.765-2.034-1.87-1.131-.779-1-.818-1.682.5m44.125,10.127c0,.4.025.564.055.364a2.9,2.9,0,0,0,0-.728c-.03-.2-.055-.037-.055.364m6.149-.06a1.16,1.16,0,0,0-.232.449.131.131,0,0,1-.118.141c-.065,0-.158.216-.208.479-.184.983-.571,1.107-1.284.412-.1-.1-.416-.35-.708-.566s-.613-.472-.716-.569a2.089,2.089,0,0,0-.933-.419c-.06,0-.141.1-.182.231a3.3,3.3,0,0,1-.275.563,8.975,8.975,0,0,0-.874,2.021,12.322,12.322,0,0,0,3.167,2.348,4.374,4.374,0,0,0,.793-1.61c.225-.7.781-.684,1.335.031a2.737,2.737,0,0,0,.53.318,4.522,4.522,0,0,1,.728.457c.63.533.985.574,1.231.143.124-.218.27-.4.325-.4s.1-.117.1-.258a.437.437,0,0,1,.121-.332,1.305,1.305,0,0,0,.21-.6,1.3,1.3,0,0,1,.21-.6.254.254,0,0,0,.121-.182,19.073,19.073,0,0,0-2.648-1.993,1.543,1.543,0,0,1-.4-.272c-.037-.054-.17.04-.3.21m-14.921,11.85-.723,1.457.325.3a17.948,17.948,0,0,0,2.827,1.943c.185,0,.348-.292.882-1.589a5.583,5.583,0,0,1,.411-.854.563.563,0,0,0-.245-.877,1.343,1.343,0,0,1-.537-.394.579.579,0,0,0-.35-.258,1.373,1.373,0,0,1-.555-.4,2.783,2.783,0,0,0-1.207-.786,8.06,8.06,0,0,0-.828,1.46m-29.491.181c-.474.262-.776.742-1.088,1.731-.161.51-.374,1.105-.472,1.324a5.212,5.212,0,0,0-.331,1.92c0,.6-.205.95-.394.662a1.176,1.176,0,0,1-.134-.53,7,7,0,0,0-.67-2.069,3.42,3.42,0,0,1-.257-.693.2.2,0,0,0-.1-.173,3.123,3.123,0,0,1-.471-.542c-.949-1.271-2.536-1.077-2.625.32-.075,1.173.477,1.744,1.626,1.684.767-.04.862.031,1.1.817a6.709,6.709,0,0,0,.392,1.02,7.177,7.177,0,0,1,.415,1.157,7.862,7.862,0,0,0,.34,1.024,1.267,1.267,0,0,1,.121.5c0,.329.378.356.477.035a3.145,3.145,0,0,1,.194-.461,1.238,1.238,0,0,0,.123-.489.444.444,0,0,1,.133-.341.775.775,0,0,0,.132-.515,1.082,1.082,0,0,1,.1-.531,1.157,1.157,0,0,0,.127-.519,4.074,4.074,0,0,1,.319-1.621.543.543,0,0,0,.118-.389.537.537,0,0,1,.132-.4.433.433,0,0,0,.133-.334.737.737,0,0,1,1.3-.461c.312.4.626.425.813.075a1.737,1.737,0,0,0-.713-2.12c-.5-.306-.441-.3-.835-.083m21.544,1.8a2.009,2.009,0,0,1-.695.257c-.129,0-.234.053-.234.118s-.149.155-.331.2-.331.142-.331.213a.146.146,0,0,1-.158.13,1.372,1.372,0,0,0-.538.364c-.4.383-.462.389-2.68.284a6.48,6.48,0,0,0-3.707,1.4,16.86,16.86,0,0,0-2.138,1.652,2.686,2.686,0,0,1-.739.5,3.493,3.493,0,0,0-.829.56.812.812,0,0,1-.492.267,1.891,1.891,0,0,0-.738.331,1.886,1.886,0,0,1-.8.331c-.434,0-1.031.47-.74.582a1.783,1.783,0,0,0,1.17-.035,1.245,1.245,0,0,1,.581-.2,1.5,1.5,0,0,0,.752-.348A.8.8,0,0,1,123,148a2.552,2.552,0,0,0,.7-.43,15.518,15.518,0,0,1,2.758-1.831,6.787,6.787,0,0,1,5.053-.406,3.93,3.93,0,0,0,2.778.266c1.621-.662,1.9-.849,2.485-1.64,1.143-1.56.07-3.19-1.517-2.305m1.021,1.269.35.35-.3.243a3.694,3.694,0,0,1-2.348.513c-1.609,0-1.742-.276-.447-.93s2.213-.707,2.745-.176" transform="translate(-86.96 -49.807)" fill="#fff" fill-rule="evenodd"/>
  </g>
</svg>
