<svg xmlns="http://www.w3.org/2000/svg" xmlns:xlink="http://www.w3.org/1999/xlink" width="70.983" height="47.658" viewBox="0 0 70.983 47.658">
  <defs>
    <clipPath id="clip-path">
      <path id="Path_78529" data-name="Path 78529" d="M3,395H72.872v3.848H3Zm0,0" transform="translate(-3 -395)" fill="#fff"/>
    </clipPath>
  </defs>
  <g id="Group_174562" data-name="Group 174562" transform="translate(-8237.501 -9245.327)">
    <g id="surface1" transform="translate(8237.501 9245.327)">
      <path id="Path_78435" data-name="Path 78435" d="M206.4,280.277q-.453.207-.919.383.228.478.483.939.483-.233.955-.5Q206.649,280.7,206.4,280.277Zm0,0" transform="translate(-182.698 -249.191)" fill="#fff" fill-rule="evenodd"/>
      <path id="Path_78436" data-name="Path 78436" d="M5.322,135.168l-2.764-2.227s2.583-4.127,7.3-3.685c0,0,3.984.208,5.209,3.412,0,0,1.383,4.274-1.794,7.1,0,0-5.035,4.415-7.054,5.519l2.4-1.023h7v3.446H2.313v-3.257L9.69,138.5c1.557-1.256,2.711-3.783.807-5.339a2.261,2.261,0,0,0-1.873-.462C7.289,132.94,6.051,134.336,5.322,135.168Zm0,0" transform="translate(-2.06 -114.89)" fill="#fff" fill-rule="evenodd"/>
      <path id="Path_78437" data-name="Path 78437" d="M335.119,134.811l0-3.311h12.136v2.957l-4.559,4.466s3.814.383,4.742,3.952c1.045,4.023-2.517,7.408-6.776,7.106a8.731,8.731,0,0,1-6.539-3.183l2.528-2.485s1.875,2.441,4.578,2.092c0,0,2.363,0,2.482-2.077.156-2.736-3.095-2.838-5.184-2.588l-.61-2.441,5.841-5.842-2.31,1.352Zm0,0" transform="translate(-297.069 -116.915)" fill="#fff" fill-rule="evenodd"/>
      <path id="Path_78438" data-name="Path 78438" d="M477.729,127.641a9.472,9.472,0,1,1-9.53,9.472A9.52,9.52,0,0,1,477.729,127.641Zm0,3.614a5.871,5.871,0,1,1-5.484,5.858A5.691,5.691,0,0,1,477.729,131.255Zm0,0" transform="translate(-416.276 -113.484)" fill="#fff" fill-rule="evenodd"/>
      <path id="Path_78439" data-name="Path 78439" d="M228.888,130.78q.339-.33.7-.638-.337-.389-.7-.755-.366.365-.7.755Q228.549,130.45,228.888,130.78Zm0,0" transform="translate(-202.881 -115.036)" fill="#fff" fill-rule="evenodd"/>
      <path id="Path_78440" data-name="Path 78440" d="M226.965,101.821q.464-.472.969-.906-.463-.568-.969-1.091-.506.524-.969,1.091Q226.5,101.349,226.965,101.821Zm0,0" transform="translate(-200.935 -88.752)" fill="#fff" fill-rule="evenodd"/>
      <path id="Path_78441" data-name="Path 78441" d="M241.047,118.522q.451-.337.934-.641-.319-.51-.669-.994c-.332.248-.653.507-.96.779Q240.715,118.082,241.047,118.522Zm0,0" transform="translate(-213.699 -103.922)" fill="#fff" fill-rule="evenodd"/>
      <path id="Path_78442" data-name="Path 78442" d="M260.863,150.97c-.109-.249-.226-.494-.347-.736q.426-.157.864-.285.168.408.317.826Q261.275,150.858,260.863,150.97Zm0,0" transform="translate(-231.627 -133.317)" fill="#fff" fill-rule="evenodd"/>
      <path id="Path_78443" data-name="Path 78443" d="M249.459,155.446c-.126-.2-.257-.4-.4-.6.23-.112.463-.219.7-.318q.2.331.37.675Q249.791,155.315,249.459,155.446Zm0,0" transform="translate(-221.444 -137.391)" fill="#fff" fill-rule="evenodd"/>
      <path id="Path_78444" data-name="Path 78444" d="M252.592,135.01q-.25-.432-.526-.846.463-.257.938-.485.259.47.489.959Q253.037,134.81,252.592,135.01Zm0,0" transform="translate(-224.114 -118.853)" fill="#fff" fill-rule="evenodd"/>
      <path id="Path_78445" data-name="Path 78445" d="M240.131,142.5q-.279-.344-.584-.67.375-.255.76-.489.291.374.554.766Q240.491,142.292,240.131,142.5Zm0,0" transform="translate(-212.983 -125.663)" fill="#fff" fill-rule="evenodd"/>
      <path id="Path_78446" data-name="Path 78446" d="M215.243,118.721q.331-.439.692-.855-.46-.408-.956-.78-.348.483-.666.993Q214.794,118.383,215.243,118.721Zm0,0" transform="translate(-190.548 -104.099)" fill="#fff" fill-rule="evenodd"/>
      <path id="Path_78447" data-name="Path 78447" d="M228.888,283.93q.339.33.7.638-.337.389-.7.755-.366-.365-.7-.755Q228.549,284.26,228.888,283.93Zm0,0" transform="translate(-202.881 -252.439)" fill="#fff" fill-rule="evenodd"/>
      <path id="Path_78448" data-name="Path 78448" d="M226.965,308.051q.464.473.969.906-.463.568-.969,1.091-.506-.524-.969-1.091Q226.5,308.523,226.965,308.051Zm0,0" transform="translate(-200.935 -273.885)" fill="#fff" fill-rule="evenodd"/>
      <path id="Path_78449" data-name="Path 78449" d="M241.047,294.246q.451.337.934.641-.319.51-.669.994c-.332-.248-.653-.507-.96-.779Q240.715,294.686,241.047,294.246Zm0,0" transform="translate(-213.699 -261.611)" fill="#fff" fill-rule="evenodd"/>
      <path id="Path_78450" data-name="Path 78450" d="M215.243,294.047q.331.439.692.855-.46.408-.956.78-.348-.484-.666-.993Q214.794,294.385,215.243,294.047Zm0,0" transform="translate(-190.548 -261.434)" fill="#fff" fill-rule="evenodd"/>
      <path id="Path_78451" data-name="Path 78451" d="M274.211,145.643q.467-.073.943-.112-.049-.513-.135-1.023-.51.085-1.011.207Q274.126,145.178,274.211,145.643Zm0,0" transform="translate(-243.622 -128.48)" fill="#fff" fill-rule="evenodd"/>
      <path id="Path_78452" data-name="Path 78452" d="M287.884,122.177q.652-.116,1.314-.176-.047-.731-.156-1.45-.715.133-1.422.326Q287.78,121.523,287.884,122.177Zm0,0" transform="translate(-255.726 -107.18)" fill="#fff" fill-rule="evenodd"/>
      <path id="Path_78453" data-name="Path 78453" d="M291.108,143.908q.563-.013,1.133.02.036-.6.032-1.2-.62.014-1.234.078Q291.094,143.357,291.108,143.908Zm0,0" transform="translate(-258.765 -126.899)" fill="#fff" fill-rule="evenodd"/>
      <path id="Path_78454" data-name="Path 78454" d="M291.82,162.736c.032-.33.052-.662.062-.994q.526.059,1.045.149-.062.533-.158,1.065Q292.3,162.831,291.82,162.736Zm0,0" transform="translate(-259.459 -143.803)" fill="#fff" fill-rule="evenodd"/>
      <path id="Path_78455" data-name="Path 78455" d="M277.8,161.634c-.018-.294-.047-.589-.087-.884q.453.011.9.043.02.473.007.945Q278.216,161.674,277.8,161.634Zm0,0" transform="translate(-246.918 -142.921)" fill="#fff" fill-rule="evenodd"/>
      <path id="Path_78456" data-name="Path 78456" d="M265.051,162.354q-.1-.344-.215-.684c.252-.044.505-.082.76-.111q.1.373.168.751Q265.407,162.321,265.051,162.354Zm0,0" transform="translate(-235.468 -143.64)" fill="#fff" fill-rule="evenodd"/>
      <path id="Path_78457" data-name="Path 78457" d="M268.987,127.732q.525-.166,1.059-.3-.137-.6-.326-1.19-.565.192-1.118.422Q268.817,127.2,268.987,127.732Zm0,0" transform="translate(-238.816 -112.243)" fill="#fff" fill-rule="evenodd"/>
      <path id="Path_78458" data-name="Path 78458" d="M185.9,270.383q.085.465.2.928-.5.121-1.011.207-.087-.51-.135-1.023Q185.429,270.456,185.9,270.383Zm0,0" transform="translate(-164.444 -240.395)" fill="#fff" fill-rule="evenodd"/>
      <path id="Path_78459" data-name="Path 78459" d="M185.213,256.324q.027.441.087.884-.454-.01-.9-.043-.02-.473-.007-.945Q184.8,256.282,185.213,256.324Zm0,0" transform="translate(-163.939 -227.801)" fill="#fff" fill-rule="evenodd"/>
      <path id="Path_78460" data-name="Path 78460" d="M169.1,290.148q.1.655.263,1.3-.706.194-1.422.327-.108-.72-.156-1.451Q168.443,290.264,169.1,290.148Zm0,0" transform="translate(-149.177 -257.967)" fill="#fff" fill-rule="evenodd"/>
      <path id="Path_78461" data-name="Path 78461" d="M188.8,285.8q.172.536.389,1.064-.555.23-1.122.421-.19-.591-.33-1.191Q188.279,285.967,188.8,285.8Zm0,0" transform="translate(-166.924 -254.103)" fill="#fff" fill-rule="evenodd"/>
      <path id="Path_78462" data-name="Path 78462" d="M221.468,273.266c-.233.139-.471.272-.71.4q.257.374.539.733.373-.235.737-.489Q221.739,273.6,221.468,273.266Zm0,0" transform="translate(-196.278 -242.958)" fill="#fff" fill-rule="evenodd"/>
      <path id="Path_78463" data-name="Path 78463" d="M214.927,263.922q-.329.138-.669.257.183.337.385.664.352-.157.693-.334C215.193,264.317,215.058,264.121,214.927,263.922Zm0,0" transform="translate(-190.499 -234.65)" fill="#fff" fill-rule="evenodd"/>
      <path id="Path_78464" data-name="Path 78464" d="M200.621,268.336q-.426.118-.863.207.157.425.335.84.454-.136.9-.3Q200.8,268.713,200.621,268.336Zm0,0" transform="translate(-177.607 -238.574)" fill="#fff" fill-rule="evenodd"/>
      <path id="Path_78465" data-name="Path 78465" d="M197.978,257.25c-.238.014-.477.021-.716.02q.06.379.143.755.383-.032.765-.086C198.1,257.711,198.035,257.481,197.978,257.25Zm0,0" transform="translate(-175.388 -228.718)" fill="#fff" fill-rule="evenodd"/>
      <path id="Path_78466" data-name="Path 78466" d="M168.626,271.633c.009.366.032.732.067,1.1q-.611.066-1.231.081,0-.6.033-1.195Q168.064,271.648,168.626,271.633Zm0,0" transform="translate(-148.893 -241.492)" fill="#fff" fill-rule="evenodd"/>
      <path id="Path_78467" data-name="Path 78467" d="M302.313,182.885q.42.216.828.466.262-.444.493-.907-.463-.232-.939-.428Q302.519,182.46,302.313,182.885Zm0,0" transform="translate(-268.788 -161.828)" fill="#fff" fill-rule="evenodd"/>
      <path id="Path_78468" data-name="Path 78468" d="M277.234,174.774q.348.083.692.187c.034-.254.061-.508.08-.763-.251-.054-.5-.1-.757-.138Q277.253,174.418,277.234,174.774Zm0,0" transform="translate(-246.491 -154.753)" fill="#fff" fill-rule="evenodd"/>
      <path id="Path_78469" data-name="Path 78469" d="M290.137,177.892q.413.155.82.341.123-.436.223-.876-.446-.157-.9-.283Q290.219,177.484,290.137,177.892Zm0,0" transform="translate(-257.963 -157.434)" fill="#fff" fill-rule="evenodd"/>
      <path id="Path_78470" data-name="Path 78470" d="M325.258,172.753q.6.29,1.166.632.392-.619.728-1.264-.657-.314-1.341-.574Q325.559,172.162,325.258,172.753Zm0,0" transform="translate(-289.189 -152.52)" fill="#fff" fill-rule="evenodd"/>
      <path id="Path_78471" data-name="Path 78471" d="M315.926,190.6q.462.321.9.683.382-.463.731-.949-.509-.355-1.042-.664Q316.237,190.148,315.926,190.6Zm0,0" transform="translate(-280.891 -168.635)" fill="#fff" fill-rule="evenodd"/>
      <path id="Path_78472" data-name="Path 78472" d="M308.164,166.731q.522.174,1.03.386.242-.565.438-1.154-.569-.178-1.152-.318Q308.343,166.2,308.164,166.731Zm0,0" transform="translate(-273.99 -147.273)" fill="#fff" fill-rule="evenodd"/>
      <path id="Path_78473" data-name="Path 78473" d="M157.033,231.063q-.205.425-.382.87-.476-.2-.939-.429.231-.463.494-.906Q156.613,230.846,157.033,231.063Zm0,0" transform="translate(-138.445 -205.022)" fill="#fff" fill-rule="evenodd"/>
      <path id="Path_78474" data-name="Path 78474" d="M174.343,207.746q-.229.276-.441.565-.268-.274-.523-.562.253-.29.523-.565Q174.114,207.473,174.343,207.746Zm0,0" transform="translate(-154.154 -184.205)" fill="#fff" fill-rule="evenodd"/>
      <path id="Path_78475" data-name="Path 78475" d="M164.858,218.592q-.238.373-.451.766-.361-.275-.7-.567.263-.394.552-.768Q164.548,218.316,164.858,218.592Zm0,0" transform="translate(-145.551 -193.842)" fill="#fff" fill-rule="evenodd"/>
      <path id="Path_78476" data-name="Path 78476" d="M129.629,237.554q-.3.59-.553,1.206-.684-.258-1.341-.574.337-.645.728-1.264Q129.033,237.263,129.629,237.554Zm0,0" transform="translate(-113.571 -210.645)" fill="#fff" fill-rule="evenodd"/>
      <path id="Path_78477" data-name="Path 78477" d="M149.908,246.415q-.177.534-.313,1.089-.584-.14-1.155-.32.194-.589.435-1.157Q149.386,246.239,149.908,246.415Zm0,0" transform="translate(-131.982 -218.74)" fill="#fff" fill-rule="evenodd"/>
      <path id="Path_78478" data-name="Path 78478" d="M186.932,243.878q-.348-.083-.692-.187c-.034.254-.061.508-.08.763.251.054.5.1.757.138C186.914,244.354,186.92,244.115,186.932,243.878Zm0,0" transform="translate(-165.517 -216.663)" fill="#fff" fill-rule="evenodd"/>
      <path id="Path_78479" data-name="Path 78479" d="M169.147,252.892q-.488-.1-.968-.232-.1.521-.163,1.043.528.1,1.064.16Q169.1,253.377,169.147,252.892Zm0,0" transform="translate(-149.386 -224.637)" fill="#fff" fill-rule="evenodd"/>
      <path id="Path_78480" data-name="Path 78480" d="M171.856,238.693q-.415-.155-.82-.341-.123.436-.223.876.446.157.9.283Q171.774,239.1,171.856,238.693Zm0,0" transform="translate(-151.873 -211.916)" fill="#fff" fill-rule="evenodd"/>
      <path id="Path_78481" data-name="Path 78481" d="M176.283,226.968q-.3-.193-.591-.406-.174.342-.329.694.329.2.669.381C176.108,227.412,176.192,227.189,176.283,226.968Zm0,0" transform="translate(-155.918 -201.434)" fill="#fff" fill-rule="evenodd"/>
      <path id="Path_78482" data-name="Path 78482" d="M141.186,221.331q-.313.453-.592.927-.533-.307-1.042-.66.348-.484.73-.946Q140.723,221.012,141.186,221.331Zm0,0" transform="translate(-124.078 -196.179)" fill="#fff" fill-rule="evenodd"/>
      <path id="Path_78483" data-name="Path 78483" d="M303,230.081q.212.423.394.864.474-.2.934-.441-.237-.46-.506-.9Q303.422,229.859,303,230.081Zm0,0" transform="translate(-269.403 -204.139)" fill="#fff" fill-rule="evenodd"/>
      <path id="Path_78484" data-name="Path 78484" d="M295.074,196.27q.305.27.6.555.278-.359.533-.737-.337-.284-.69-.553Q295.305,195.912,295.074,196.27Zm0,0" transform="translate(-262.352 -173.848)" fill="#fff" fill-rule="evenodd"/>
      <path id="Path_78485" data-name="Path 78485" d="M288.27,207q.232.272.449.559.265-.277.514-.569-.256-.287-.529-.558Q288.5,206.722,288.27,207Zm0,0" transform="translate(-256.303 -183.534)" fill="#fff" fill-rule="evenodd"/>
      <path id="Path_78486" data-name="Path 78486" d="M305.836,206.8q.335.369.646.759.385-.363.746-.746-.37-.389-.765-.757Q306.162,206.438,305.836,206.8Zm0,0" transform="translate(-271.921 -183.201)" fill="#fff" fill-rule="evenodd"/>
      <path id="Path_78487" data-name="Path 78487" d="M296.363,217.725q.242.37.461.759.357-.279.7-.576c-.179-.26-.367-.514-.562-.76Q296.669,217.444,296.363,217.725Zm0,0" transform="translate(-263.498 -193.064)" fill="#fff" fill-rule="evenodd"/>
      <path id="Path_78488" data-name="Path 78488" d="M325.922,236.234q.309.586.569,1.2.681-.268,1.333-.591-.346-.641-.745-1.255Q326.513,235.934,325.922,236.234Zm0,0" transform="translate(-289.779 -209.457)" fill="#fff" fill-rule="evenodd"/>
      <path id="Path_78489" data-name="Path 78489" d="M286.223,190.638q.309.178.61.376c.1-.233.2-.47.294-.709-.225-.123-.454-.239-.686-.348C286.376,190.187,286.3,190.414,286.223,190.638Zm0,0" transform="translate(-254.483 -168.888)" fill="#fff" fill-rule="evenodd"/>
      <path id="Path_78490" data-name="Path 78490" d="M309.156,245.332q.184.532.327,1.085.583-.148,1.151-.335-.2-.587-.451-1.151Q309.677,245.149,309.156,245.332Zm0,0" transform="translate(-274.872 -217.764)" fill="#fff" fill-rule="evenodd"/>
      <path id="Path_78491" data-name="Path 78491" d="M316.238,220.168q.318.448.6.918.528-.314,1.034-.673-.355-.479-.743-.936Q316.7,219.843,316.238,220.168Zm0,0" transform="translate(-281.169 -195.134)" fill="#fff" fill-rule="evenodd"/>
      <path id="Path_78492" data-name="Path 78492" d="M157.1,183.817q-.417.222-.822.477-.268-.44-.505-.9.46-.237.933-.44Q156.889,183.394,157.1,183.817Zm0,0" transform="translate(-138.501 -162.661)" fill="#fff" fill-rule="evenodd"/>
      <path id="Path_78493" data-name="Path 78493" d="M129.449,174q-.591.3-1.158.647-.4-.613-.745-1.254.652-.322,1.334-.591Q129.14,173.416,129.449,174Zm0,0" transform="translate(-113.405 -153.639)" fill="#fff" fill-rule="evenodd"/>
      <path id="Path_78494" data-name="Path 78494" d="M141.1,191.731q-.457.327-.895.695-.389-.458-.744-.939.5-.362,1.034-.678Q140.785,191.281,141.1,191.731Zm0,0" transform="translate(-124.001 -169.646)" fill="#fff" fill-rule="evenodd"/>
      <path id="Path_78495" data-name="Path 78495" d="M153.357,207.024q-.335-.368-.646-.758-.385.363-.747.746.37.389.765.758C152.931,207.514,153.14,207.267,153.357,207.024Zm0,0" transform="translate(-135.115 -183.388)" fill="#fff" fill-rule="evenodd"/>
      <path id="Path_78496" data-name="Path 78496" d="M164.713,197.439q-.243-.37-.46-.759-.357.28-.7.576.268.391.561.761Q164.406,197.72,164.713,197.439Zm0,0" transform="translate(-145.42 -174.866)" fill="#fff" fill-rule="evenodd"/>
      <path id="Path_78497" data-name="Path 78497" d="M149.849,167.73q-.519.181-1.025.4-.248-.562-.453-1.148.567-.185,1.149-.333Q149.664,167.2,149.849,167.73Zm0,0" transform="translate(-131.92 -148.164)" fill="#fff" fill-rule="evenodd"/>
      <path id="Path_78498" data-name="Path 78498" d="M276.121,269.766q-.079.466-.191.931.5.115,1.014.194.08-.511.121-1.025C276.748,269.843,276.433,269.81,276.121,269.766Zm0,0" transform="translate(-245.331 -239.846)" fill="#fff" fill-rule="evenodd"/>
      <path id="Path_78499" data-name="Path 78499" d="M289.945,236.765c.059.265.11.532.154.8.29-.084.579-.177.865-.281q-.105-.428-.232-.853Q290.343,236.612,289.945,236.765Zm0,0" transform="translate(-257.792 -210.207)" fill="#fff" fill-rule="evenodd"/>
      <path id="Path_78500" data-name="Path 78500" d="M278.914,241.395q.027.357.033.716.377-.068.752-.156c-.025-.255-.059-.51-.1-.763Q279.259,241.3,278.914,241.395Zm0,0" transform="translate(-247.984 -214.44)" fill="#fff" fill-rule="evenodd"/>
      <path id="Path_78501" data-name="Path 78501" d="M292.383,252.5q.053.5.075.993.525-.066,1.043-.163-.07-.532-.172-1.063C293.017,252.358,292.7,252.435,292.383,252.5Zm0,0" transform="translate(-259.96 -224.29)" fill="#fff" fill-rule="evenodd"/>
      <path id="Path_78502" data-name="Path 78502" d="M278.486,255.6q-.023.442-.075.885.453-.016.9-.055.014-.473-.006-.945Q278.9,255.553,278.486,255.6Zm0,0" transform="translate(-247.536 -227.148)" fill="#fff" fill-rule="evenodd"/>
      <path id="Path_78503" data-name="Path 78503" d="M289.751,289.352q-.1.656-.247,1.3.709.185,1.426.308.1-.721.137-1.452Q290.405,289.459,289.751,289.352Zm0,0" transform="translate(-257.4 -257.26)" fill="#fff" fill-rule="evenodd"/>
      <path id="Path_78504" data-name="Path 78504" d="M286.367,225.953q.145.327.271.664c.222-.127.441-.259.655-.4q-.164-.348-.349-.686Q286.661,225.752,286.367,225.953Zm0,0" transform="translate(-254.611 -200.517)" fill="#fff" fill-rule="evenodd"/>
      <path id="Path_78505" data-name="Path 78505" d="M270.98,285.23q-.164.538-.375,1.069c.371.149.748.284,1.127.407q.183-.593.315-1.2Q271.508,285.389,270.98,285.23Zm0,0" transform="translate(-240.597 -253.595)" fill="#fff" fill-rule="evenodd"/>
      <path id="Path_78506" data-name="Path 78506" d="M239.519,273.078q.353.2.715.389-.252.378-.53.74c-.25-.153-.5-.313-.743-.479Q239.253,273.411,239.519,273.078Zm0,0" transform="translate(-212.462 -242.791)" fill="#fff" fill-rule="evenodd"/>
      <path id="Path_78507" data-name="Path 78507" d="M247.519,263.648q.331.134.672.248-.179.339-.377.669-.353-.153-.7-.326Q247.328,263.95,247.519,263.648Zm0,0" transform="translate(-219.714 -234.406)" fill="#fff" fill-rule="evenodd"/>
      <path id="Path_78508" data-name="Path 78508" d="M253.4,279.918q.456.2.924.372-.222.48-.47.945-.487-.227-.961-.485Q253.158,280.343,253.4,279.918Zm0,0" transform="translate(-224.848 -248.872)" fill="#fff" fill-rule="evenodd"/>
      <path id="Path_78509" data-name="Path 78509" d="M260.674,267.9q.428.113.867.2-.152.427-.325.844-.455-.13-.9-.291Q260.505,268.275,260.674,267.9Zm0,0" transform="translate(-231.449 -238.182)" fill="#fff" fill-rule="evenodd"/>
      <path id="Path_78510" data-name="Path 78510" d="M230.807,266.609q.268.237.551.459-.283.26-.579.5-.282-.263-.548-.541Q230.526,266.829,230.807,266.609Zm0,0" transform="translate(-204.7 -237.039)" fill="#fff" fill-rule="evenodd"/>
      <path id="Path_78511" data-name="Path 78511" d="M265.761,256.762q.357.017.716.011-.056.38-.134.756c-.256-.018-.512-.044-.766-.076Q265.681,257.11,265.761,256.762Zm0,0" transform="translate(-236.127 -228.284)" fill="#fff" fill-rule="evenodd"/>
      <path id="Path_78512" data-name="Path 78512" d="M292.744,270.7q-.007.55-.053,1.1.612.058,1.232.065,0-.6-.049-1.194C293.5,270.694,293.118,270.7,292.744,270.7Zm0,0" transform="translate(-260.234 -240.648)" fill="#fff" fill-rule="evenodd"/>
      <path id="Path_78513" data-name="Path 78513" d="M186.226,146.172q-.468-.066-.945-.1.043-.513.122-1.025.511.079,1.014.194Q186.3,145.706,186.226,146.172Zm0,0" transform="translate(-164.736 -128.959)" fill="#fff" fill-rule="evenodd"/>
      <path id="Path_78514" data-name="Path 78514" d="M220.68,143.594q-.354-.2-.715-.389.252-.378.529-.74.376.229.743.479Q220.947,143.261,220.68,143.594Zm0,0" transform="translate(-195.573 -126.663)" fill="#fff" fill-rule="evenodd"/>
      <path id="Path_78515" data-name="Path 78515" d="M214.277,154.718q-.331-.134-.672-.248.179-.34.376-.669.353.153.7.326Q214.468,154.417,214.277,154.718Zm0,0" transform="translate(-189.919 -136.742)" fill="#fff" fill-rule="evenodd"/>
      <path id="Path_78516" data-name="Path 78516" d="M205.529,135.25q-.456-.2-.924-.371.222-.481.471-.945.486.227.961.485C205.858,134.69,205.69,134.968,205.529,135.25Zm0,0" transform="translate(-181.917 -119.079)" fill="#fff" fill-rule="evenodd"/>
      <path id="Path_78517" data-name="Path 78517" d="M199.917,149.489q-.428-.113-.866-.2.152-.427.325-.844.455.13.9.291C200.149,148.986,200.029,149.236,199.917,149.489Zm0,0" transform="translate(-176.979 -131.984)" fill="#fff" fill-rule="evenodd"/>
      <path id="Path_78518" data-name="Path 78518" d="M168.837,122.927c-.436-.072-.876-.124-1.317-.159q.038-.731.137-1.452c.478.083.954.185,1.426.308Q168.933,122.271,168.837,122.927Zm0,0" transform="translate(-148.945 -107.86)" fill="#fff" fill-rule="evenodd"/>
      <path id="Path_78519" data-name="Path 78519" d="M230.563,151.389q-.268-.237-.551-.459.281-.26.579-.5.282.262.548.54Q230.843,151.169,230.563,151.389Zm0,0" transform="translate(-204.506 -133.742)" fill="#fff" fill-rule="evenodd"/>
      <path id="Path_78520" data-name="Path 78520" d="M168.5,144.679q-.563-.006-1.132.034-.044-.6-.047-1.2c.414,0,.826.024,1.235.062Q168.5,144.128,168.5,144.679Zm0,0" transform="translate(-148.763 -127.598)" fill="#fff" fill-rule="evenodd"/>
      <path id="Path_78521" data-name="Path 78521" d="M172.289,179.862c-.059-.266-.11-.532-.154-.8q-.436.125-.865.281.105.428.232.853Q171.892,180.015,172.289,179.862Zm0,0" transform="translate(-152.279 -159.202)" fill="#fff" fill-rule="evenodd"/>
      <path id="Path_78522" data-name="Path 78522" d="M185.2,176.95q-.027-.357-.033-.716-.378.068-.752.156.039.383.1.763C184.741,177.078,184.969,177.011,185.2,176.95Zm0,0" transform="translate(-163.965 -156.687)" fill="#fff" fill-rule="evenodd"/>
      <path id="Path_78523" data-name="Path 78523" d="M169.059,163.391q-.053-.5-.075-.993-.526.066-1.043.163.07.532.172,1.063Q168.582,163.492,169.059,163.391Zm0,0" transform="translate(-149.319 -144.386)" fill="#fff" fill-rule="evenodd"/>
      <path id="Path_78524" data-name="Path 78524" d="M184.638,162.1q.022-.442.075-.885-.453.016-.9.055-.014.473.005.945Q184.225,162.151,184.638,162.1Zm0,0" transform="translate(-163.423 -143.338)" fill="#fff" fill-rule="evenodd"/>
      <path id="Path_78525" data-name="Path 78525" d="M176.611,191.066q-.146-.327-.271-.664-.333.19-.655.4.164.348.349.686C176.222,191.34,176.414,191.2,176.611,191.066Zm0,0" transform="translate(-156.203 -169.284)" fill="#fff" fill-rule="evenodd"/>
      <path id="Path_78526" data-name="Path 78526" d="M197.316,162.741q.093-.346.206-.687c-.253-.041-.506-.075-.761-.1-.061.25-.113.5-.159.752Q196.96,162.712,197.316,162.741Zm0,0" transform="translate(-174.801 -143.99)" fill="#fff" fill-rule="evenodd"/>
      <path id="Path_78527" data-name="Path 78527" d="M188.848,128.21q-.527-.16-1.063-.282.13-.6.311-1.194.567.184,1.124.408Q189.011,127.672,188.848,128.21Zm0,0" transform="translate(-166.962 -112.677)" fill="#fff" fill-rule="evenodd"/>
      <g id="Group_15340" data-name="Group 15340" transform="translate(0.329 43.809)" clip-path="url(#clip-path)">
        <path id="Path_78528" data-name="Path 78528" d="M3.395,399.146v-3.675h.487v1.822l1.825-1.822h.658L4.823,396.96l1.609,2.186H5.79l-1.307-1.86-.6.587v1.273Zm66.359,0,1.412-3.675h.523l1.5,3.675h-.555l-.428-1.113H70.673l-.4,1.113Zm1.06-1.509H72.06l-.384-1.017q-.175-.463-.261-.762a4.564,4.564,0,0,1-.2.7Zm-2-2.165H69.3v3.675h-.486Zm-3.527,3.675v-3.675h1.379a1.717,1.717,0,0,1,.675.111.869.869,0,0,1,.4.344.9.9,0,0,1,.144.485.824.824,0,0,1-.129.443.908.908,0,0,1-.385.336.962.962,0,0,1,.512.333.892.892,0,0,1,.18.557,1.073,1.073,0,0,1-.11.48.93.93,0,0,1-.269.342,1.129,1.129,0,0,1-.4.181,2.448,2.448,0,0,1-.593.062Zm.487-2.13h.794a1.792,1.792,0,0,0,.464-.043.512.512,0,0,0,.278-.183.529.529,0,0,0,.094-.321.594.594,0,0,0-.087-.322.446.446,0,0,0-.251-.191,2.1,2.1,0,0,0-.559-.052h-.734Zm0,1.7h.914a2.2,2.2,0,0,0,.331-.017.793.793,0,0,0,.281-.1.535.535,0,0,0,.185-.2.645.645,0,0,0,.073-.31.614.614,0,0,0-.105-.358.558.558,0,0,0-.292-.213,1.837,1.837,0,0,0-.537-.061h-.85Zm-4.294.434,1.412-3.675h.523l1.5,3.675h-.555l-.428-1.113H62.4l-.4,1.113Zm1.06-1.509h1.246l-.384-1.017q-.175-.463-.26-.762a4.652,4.652,0,0,1-.2.7Zm-4.356,1.509v-3.675h1.629a2.168,2.168,0,0,1,.747.1.821.821,0,0,1,.409.349,1.048,1.048,0,0,1,.153.555.92.92,0,0,1-.253.659,1.283,1.283,0,0,1-.782.341,1.218,1.218,0,0,1,.294.183,2.571,2.571,0,0,1,.4.488l.639,1H60.81l-.486-.765c-.142-.22-.259-.389-.351-.506a1.086,1.086,0,0,0-.246-.245.738.738,0,0,0-.222-.1,1.57,1.57,0,0,0-.271-.017H58.67v1.632Zm.486-2.053h1.045a1.555,1.555,0,0,0,.521-.069.555.555,0,0,0,.285-.22.6.6,0,0,0,.1-.329.547.547,0,0,0-.189-.429.884.884,0,0,0-.6-.168H58.67Zm-4.321,2.053,1.412-3.675h.523l1.5,3.675h-.555l-.428-1.113H55.268l-.4,1.113Zm1.06-1.509h1.246l-.384-1.017q-.175-.463-.26-.762a4.685,4.685,0,0,1-.2.7Zm-3.142-2.165h.486v3.675h-.486Zm-3.79,3.675v-3.675h1.265a3.057,3.057,0,0,1,.655.053,1.237,1.237,0,0,1,.538.262,1.5,1.5,0,0,1,.435.628,2.464,2.464,0,0,1,.145.874,2.543,2.543,0,0,1-.1.742,1.8,1.8,0,0,1-.251.536,1.313,1.313,0,0,1-.334.333,1.352,1.352,0,0,1-.438.185,2.524,2.524,0,0,1-.59.062Zm.486-.434h.785a1.91,1.91,0,0,0,.571-.068.822.822,0,0,0,.33-.191,1.148,1.148,0,0,0,.269-.464,2.265,2.265,0,0,0,.1-.708,1.708,1.708,0,0,0-.189-.886.95.95,0,0,0-.46-.415,1.894,1.894,0,0,0-.629-.076h-.772Zm-1.782-3.241h.486V397.6a2.5,2.5,0,0,1-.126.879,1.072,1.072,0,0,1-.452.529,1.6,1.6,0,0,1-.859.2,1.754,1.754,0,0,1-.844-.178,1.008,1.008,0,0,1-.469-.515,2.445,2.445,0,0,1-.14-.92v-2.124h.486v2.121a2.05,2.05,0,0,0,.089.7.679.679,0,0,0,.3.35,1.062,1.062,0,0,0,.531.123,1.012,1.012,0,0,0,.765-.244,1.4,1.4,0,0,0,.228-.934Zm-6.239,3.675,1.411-3.675h.524l1.5,3.675h-.554l-.429-1.113H41.861l-.4,1.113ZM42,397.637h1.247l-.384-1.017q-.175-.463-.26-.762a4.788,4.788,0,0,1-.2.7Zm-4.245.329.458-.04a.991.991,0,0,0,.152.452.825.825,0,0,0,.37.286,1.393,1.393,0,0,0,.564.109,1.353,1.353,0,0,0,.491-.082.687.687,0,0,0,.317-.226.529.529,0,0,0,.1-.315.475.475,0,0,0-.1-.3.739.739,0,0,0-.33-.216,6.428,6.428,0,0,0-.655-.18,3.367,3.367,0,0,1-.709-.229,1,1,0,0,1-.393-.342.84.84,0,0,1-.129-.458.934.934,0,0,1,.158-.52.981.981,0,0,1,.461-.368,1.768,1.768,0,0,1,.674-.125,1.841,1.841,0,0,1,.721.132,1.043,1.043,0,0,1,.48.387,1.121,1.121,0,0,1,.181.579l-.467.035a.754.754,0,0,0-.255-.526.989.989,0,0,0-.64-.178,1.028,1.028,0,0,0-.643.162.485.485,0,0,0-.2.389.417.417,0,0,0,.143.326,1.933,1.933,0,0,0,.733.262,4.887,4.887,0,0,1,.814.234,1.123,1.123,0,0,1,.474.375.914.914,0,0,1,.152.523,1,1,0,0,1-.167.552,1.11,1.11,0,0,1-.482.4,1.686,1.686,0,0,1-.707.144,2.1,2.1,0,0,1-.836-.146,1.17,1.17,0,0,1-.529-.437A1.232,1.232,0,0,1,37.756,397.965Zm-4.372,1.181v-3.675h2.479v.434H33.871v1.138h1.724v.434H33.871v1.669Zm-4.166-1.79a2,2,0,0,1,.491-1.432,1.673,1.673,0,0,1,1.269-.518,1.764,1.764,0,0,1,.917.243,1.6,1.6,0,0,1,.623.678,2.2,2.2,0,0,1,.214.986,2.167,2.167,0,0,1-.225,1,1.546,1.546,0,0,1-.639.669,1.827,1.827,0,0,1-.892.227,1.73,1.73,0,0,1-.928-.251,1.608,1.608,0,0,1-.62-.684A2.071,2.071,0,0,1,29.219,397.356Zm.5.007a1.471,1.471,0,0,0,.357,1.047,1.246,1.246,0,0,0,1.8,0,1.563,1.563,0,0,0,.356-1.1,1.885,1.885,0,0,0-.153-.783,1.175,1.175,0,0,0-.443-.52,1.209,1.209,0,0,0-.655-.184,1.241,1.241,0,0,0-.889.355A1.583,1.583,0,0,0,29.72,397.364Zm-6.071,1.782v-3.675h.732l.87,2.6c.081.242.14.424.175.544.042-.133.107-.33.2-.589l.879-2.557h.654v3.675h-.469v-3.075l-1.067,3.075H25.18l-1.063-3.128v3.128Zm-4.126-1.79a1.994,1.994,0,0,1,.491-1.432,1.671,1.671,0,0,1,1.268-.518,1.764,1.764,0,0,1,.917.243,1.6,1.6,0,0,1,.623.678,2.2,2.2,0,0,1,.214.986,2.156,2.156,0,0,1-.225,1,1.542,1.542,0,0,1-.639.669,1.828,1.828,0,0,1-.892.227,1.73,1.73,0,0,1-.928-.251,1.608,1.608,0,0,1-.62-.684A2.065,2.065,0,0,1,19.524,397.356Zm.5.007a1.471,1.471,0,0,0,.357,1.047,1.246,1.246,0,0,0,1.8,0,1.563,1.563,0,0,0,.355-1.1,1.885,1.885,0,0,0-.152-.783,1.173,1.173,0,0,0-.444-.52,1.208,1.208,0,0,0-.655-.184,1.24,1.24,0,0,0-.889.355A1.583,1.583,0,0,0,20.025,397.364Zm-4.061,1.782v-3.675H17.23a3.058,3.058,0,0,1,.655.053,1.243,1.243,0,0,1,.539.262,1.5,1.5,0,0,1,.435.628,2.454,2.454,0,0,1,.145.874,2.543,2.543,0,0,1-.1.742,1.794,1.794,0,0,1-.251.536,1.316,1.316,0,0,1-.334.333,1.36,1.36,0,0,1-.438.185,2.525,2.525,0,0,1-.591.062Zm.486-.434h.785a1.912,1.912,0,0,0,.571-.068.818.818,0,0,0,.329-.191,1.149,1.149,0,0,0,.269-.464,2.276,2.276,0,0,0,.1-.708,1.713,1.713,0,0,0-.189-.886.951.951,0,0,0-.46-.415,1.9,1.9,0,0,0-.63-.076h-.772ZM13.692,397.7v-.43l1.556,0v1.363a2.758,2.758,0,0,1-.739.43,2.2,2.2,0,0,1-.782.144,2.085,2.085,0,0,1-.984-.232,1.533,1.533,0,0,1-.668-.67,2.105,2.105,0,0,1-.226-.981,2.262,2.262,0,0,1,.225-1,1.491,1.491,0,0,1,.645-.691,2.032,2.032,0,0,1,.97-.225,1.919,1.919,0,0,1,.72.129,1.184,1.184,0,0,1,.5.36,1.594,1.594,0,0,1,.279.6l-.439.12a1.376,1.376,0,0,0-.205-.441.842.842,0,0,0-.352-.256,1.285,1.285,0,0,0-.506-.1,1.488,1.488,0,0,0-.577.1,1.079,1.079,0,0,0-.393.267,1.287,1.287,0,0,0-.231.363,1.919,1.919,0,0,0-.14.739,1.8,1.8,0,0,0,.169.822,1.082,1.082,0,0,0,.493.491,1.522,1.522,0,0,0,.686.161,1.63,1.63,0,0,0,.617-.122,1.565,1.565,0,0,0,.456-.26V397.7ZM8.26,399.146v-3.675h.5l1.93,2.885v-2.885h.466v3.675h-.5l-1.93-2.888v2.888Zm-1.338-3.675h.486v3.675H6.922Zm0,0" transform="translate(-3.351 -395.361)" fill="#fff" fill-rule="evenodd"/>
      </g>
      <path id="Path_78530" data-name="Path 78530" d="M195.625,167.469a1.6,1.6,0,0,1,.237.8s.5-.813,1.526-.135c0,0-.876-.117-1.084.334,0,0,1.346-.352,1.635.894,0,0-.623-.7-1.192-.569a1.457,1.457,0,0,1,.931,1.779s-.108-1.192-.975-1.337a1.981,1.981,0,0,1,.5,1.988,1.954,1.954,0,0,0-.614-1.454,2.1,2.1,0,0,1-.262,1.942s.352-1.183-.217-1.617c0,0-.235-.144-.226.289,0,0-.067,2.482.055,3.693,0,0,2.486-2.1,4.613-.7,0,0-2.106-1.028-4.531,1.236l1.619,1.422a.406.406,0,0,1,.751.214c0,.546-.767.508-1.048.18l-1.7-1.563-.012-.037-.013.037-1.7,1.563c-.28.328-1.048.367-1.048-.18a.406.406,0,0,1,.751-.214l1.619-1.422c-2.425-2.264-4.532-1.236-4.532-1.236,2.128-1.4,4.613.7,4.613.7.123-1.211.055-3.693.055-3.693.009-.433-.226-.289-.226-.289-.569.434-.217,1.617-.217,1.617a2.1,2.1,0,0,1-.262-1.942,1.953,1.953,0,0,0-.614,1.454,1.981,1.981,0,0,1,.5-1.988c-.867.145-.976,1.337-.976,1.337a1.457,1.457,0,0,1,.93-1.779c-.569-.126-1.192.569-1.192.569.288-1.246,1.635-.894,1.635-.894-.207-.452-1.084-.334-1.084-.334,1.03-.678,1.527.135,1.527.135A1.591,1.591,0,0,1,195.625,167.469Zm0,0" transform="translate(-169.557 -148.894)" fill="#fff" fill-rule="evenodd"/>
      <path id="Path_78531" data-name="Path 78531" d="M3.757,341.262H4.23v-.473H3.757Zm-1.108-5.129H2.176v.473h.474Zm1.9,5.129h.473v-.473H4.554Zm-2.7-5.129H1.379v.473h.473ZM7.9,337.54a1.152,1.152,0,0,0-.411-.3,1.231,1.231,0,0,0-.548-.1H6.6v.448h.411a.678.678,0,0,1,.311.075.762.762,0,0,1,.249.187.861.861,0,0,1,.136.261,1.391,1.391,0,0,1,.038.349v1.332H5.587v.46H8.2v-1.8a1.684,1.684,0,0,0-.075-.51A1.045,1.045,0,0,0,7.9,337.54Zm17.777,2.714h.46v-4.12h-.46Zm-1.793-.46h-.759a1.529,1.529,0,0,1-.635-.112.885.885,0,0,1-.361-.349,1.5,1.5,0,0,0,.049-.436v-1.469h-.46v1.544a.908.908,0,0,1-.212.635.828.828,0,0,1-.647.237.905.905,0,0,1-.373-.062,1.067,1.067,0,0,1-.286-.162.992.992,0,0,1-.187-.261.674.674,0,0,1-.075-.311v-1.618H19.48v1.581a.98.98,0,0,1-.062.361.556.556,0,0,1-.174.237.607.607,0,0,1-.249.137.725.725,0,0,1-.286.05h-.9v-2.365h-.461v2.365h-2.4l.8-1.917a4.7,4.7,0,0,0-.387-.311,3.644,3.644,0,0,0-.423-.237,2.22,2.22,0,0,0-.448-.174,1.6,1.6,0,0,0-.884,0,3.228,3.228,0,0,0-.448.162,2.927,2.927,0,0,0-.423.249,3.315,3.315,0,0,0-.386.311l.81,1.917H11.563v-2.651h-.734a2.523,2.523,0,0,0-.772.112,1.973,1.973,0,0,0-.6.336,1.414,1.414,0,0,0-.4.5,1.464,1.464,0,0,0-.137.622,1.339,1.339,0,0,0,.162.7,1.263,1.263,0,0,0,.411.473,1.831,1.831,0,0,0,.61.286,3.367,3.367,0,0,0,.722.087H11.1v.125a.618.618,0,0,1-.2.523.992.992,0,0,1-.585.149,1.828,1.828,0,0,1-.386-.037,2.4,2.4,0,0,1-.386-.137l-.137.436a3.3,3.3,0,0,0,.461.15,1.546,1.546,0,0,0,.411.05,1.335,1.335,0,0,0,.983-.324,1.192,1.192,0,0,0,.3-.847v-.088h7.146a1.181,1.181,0,0,0,.6-.149,1.264,1.264,0,0,0,.423-.386,1.081,1.081,0,0,0,.448.436,1.469,1.469,0,0,0,.685.149,1.656,1.656,0,0,0,.7-.137.976.976,0,0,0,.448-.448.759.759,0,0,0,.149.2.731.731,0,0,0,.212.162,1.015,1.015,0,0,0,.311.125,1.4,1.4,0,0,0,.337.037v.012h1.332v-4.12h-.46ZM35,341.273h.473V340.8H35Zm4.494-1.469-.71-1.768a1.629,1.629,0,0,1,.535-.324,1.567,1.567,0,0,1,.585-.1,1.927,1.927,0,0,1,1.132.423l-.721,1.768Zm3.262,0H40.8l.809-1.93c-.125-.1-.261-.2-.4-.3a4.811,4.811,0,0,0-.423-.249,3.066,3.066,0,0,0-.436-.162,1.653,1.653,0,0,0-.9,0,3.185,3.185,0,0,0-.448.162,2.866,2.866,0,0,0-.423.249c-.137.1-.262.2-.386.3l.821,1.93H37.3V337.14h-.46v3.212a1.305,1.305,0,0,1-.025.336.469.469,0,0,1-.062.211.268.268,0,0,1-.137.125.5.5,0,0,1-.212.037.342.342,0,0,1-.112-.013.69.69,0,0,1-.125-.025l-.124.448a2.2,2.2,0,0,0,.373.05.855.855,0,0,0,.423-.087.683.683,0,0,0,.274-.224,1.292,1.292,0,0,0,.149-.373,2.768,2.768,0,0,0,.037-.486v-.1h5.913v-4.108h-.461Zm-9.436,1.469h.473V340.8h-.473ZM30.528,339.8h-.461a1.643,1.643,0,0,1-.485-.075,1.081,1.081,0,0,1-.386-.224.9.9,0,0,1-.274-.336,1.129,1.129,0,0,1-.1-.461.933.933,0,0,1,.112-.46,1.468,1.468,0,0,1,.274-.349,2.173,2.173,0,0,1,.411-.224,1.411,1.411,0,0,1,.448-.075h.461Zm4.942-2.664h-.46V339.8h-1.73V337.14h-.46V339.8h-1.83V337.14h-.722a2.59,2.59,0,0,0-.784.124,1.713,1.713,0,0,0-.6.324,1.487,1.487,0,0,0-.386.5,1.47,1.47,0,0,0-.137.622,1.553,1.553,0,0,0,.162.7,1.53,1.53,0,0,0,.411.486,1.833,1.833,0,0,0,.61.274,2.669,2.669,0,0,0,.722.087h5.2Zm-2.95,4.133h.473V340.8H32.52Zm-1.531-5.129h-.473v.473h.473Zm-.81,0h-.473v.473h.473Zm14.366,4.108h.461v-4.108h-.461Zm20.55-.4a1.183,1.183,0,0,1-.261.386,1.313,1.313,0,0,1-.373.249,1.249,1.249,0,0,1-.486.087,1.009,1.009,0,0,1-.473-.1,1.509,1.509,0,0,1-.374-.249,1.12,1.12,0,0,1-.236-.386,1.186,1.186,0,0,1-.1-.461,1.246,1.246,0,0,1,.1-.473,1.119,1.119,0,0,1,.236-.386,1.423,1.423,0,0,1,.374-.261,1.145,1.145,0,0,1,.473-.087,1.249,1.249,0,0,1,.486.087,1.38,1.38,0,0,1,.386.249.991.991,0,0,1,.249.386,1.25,1.25,0,0,1,.1.486A1.189,1.189,0,0,1,65.1,339.851Zm-4.457,0a1.177,1.177,0,0,1-.261.386,1.218,1.218,0,0,1-.386.249,1.145,1.145,0,0,1-.473.087,1.008,1.008,0,0,1-.473-.1,1.5,1.5,0,0,1-.374-.249,1.366,1.366,0,0,1-.249-.386,1.429,1.429,0,0,1-.087-.461,1.5,1.5,0,0,1,.087-.473,1.364,1.364,0,0,1,.249-.386,1.421,1.421,0,0,1,.374-.261,1.145,1.145,0,0,1,.473-.087,1.247,1.247,0,0,1,.486.087,1.379,1.379,0,0,1,.386.249,1.147,1.147,0,0,1,.249.386,1.252,1.252,0,0,1,.1.486A1.191,1.191,0,0,1,60.639,339.851Zm-11.179.211h-.448a1.523,1.523,0,0,1-.485-.075,1.142,1.142,0,0,1-.4-.224.879.879,0,0,1-.261-.336.958.958,0,0,1-.1-.461,1.088,1.088,0,0,1,.1-.461,1.25,1.25,0,0,1,.286-.348,1.724,1.724,0,0,1,.4-.224,1.432,1.432,0,0,1,.461-.075h.448Zm17.627,0H65.506a1.571,1.571,0,0,0,.15-.685,1.693,1.693,0,0,0-.137-.66,1.735,1.735,0,0,0-.348-.535,1.6,1.6,0,0,0-.536-.348,1.772,1.772,0,0,0-1.307,0,1.509,1.509,0,0,0-.51.361,1.429,1.429,0,0,0-.349.535,1.631,1.631,0,0,0-.137.647,1.537,1.537,0,0,0,.149.685H61.049a1.573,1.573,0,0,0,.149-.685,1.693,1.693,0,0,0-.137-.66,1.737,1.737,0,0,0-.348-.535,1.6,1.6,0,0,0-.536-.348,1.642,1.642,0,0,0-.66-.125,1.581,1.581,0,0,0-.647.125,1.7,1.7,0,0,0-.523.361,1.8,1.8,0,0,0-.348.535,1.852,1.852,0,0,0-.125.647,1.7,1.7,0,0,0,.037.361,3.255,3.255,0,0,0,.1.324H56.555V336.4h-.461v3.66H54.638v-.71a1.661,1.661,0,0,0-.075-.5,1.067,1.067,0,0,0-.212-.411,1.565,1.565,0,0,0-.411-.3,1.467,1.467,0,0,0-.56-.087H51.339l.872-1.656h-.5l-.884,1.643a1.379,1.379,0,0,0,.062.262,1.111,1.111,0,0,0,.137.2h2.353a.908.908,0,0,1,.373.075.606.606,0,0,1,.249.174.538.538,0,0,1,.137.262,1.393,1.393,0,0,1,.037.336v.71H49.92V337.4H49.2a2.594,2.594,0,0,0-.784.124,1.834,1.834,0,0,0-.6.324,1.454,1.454,0,0,0-.373.5,1.305,1.305,0,0,0-.137.623,1.547,1.547,0,0,0,.149.7,1.925,1.925,0,0,0,.411.485,1.822,1.822,0,0,0,.61.274,2.741,2.741,0,0,0,.722.087h9.113a1.647,1.647,0,0,0,.535.386,1.749,1.749,0,0,0,1.357,0,1.422,1.422,0,0,0,.548-.386H62.78a1.593,1.593,0,0,0,.523.386,1.554,1.554,0,0,0,.672.137,1.571,1.571,0,0,0,.685-.137,1.423,1.423,0,0,0,.548-.386h2.34V336.4h-.461Zm1.8.448h.46V336.4h-.46ZM49.111,336.4h-.473v.473h.473Zm.809,0h-.473v.473h.473Zm-44.981.739H4.479v2.651H2.649v-2.651H1.928a2.606,2.606,0,0,0-.785.112,1.971,1.971,0,0,0-.6.324,1.486,1.486,0,0,0-.51,1.12,1.515,1.515,0,0,0,.149.7,1.448,1.448,0,0,0,.423.485,1.757,1.757,0,0,0,.6.274,2.822,2.822,0,0,0,.722.1H4.94Zm-2.751,2.651H1.741a1.526,1.526,0,0,1-.486-.075,1.348,1.348,0,0,1-.4-.212,1.036,1.036,0,0,1-.262-.348.936.936,0,0,1-.1-.461,1.078,1.078,0,0,1,.1-.448,1.135,1.135,0,0,1,.287-.348,1.146,1.146,0,0,1,.4-.224,1.447,1.447,0,0,1,.461-.087h.448Zm8.913,0h-.461a1.525,1.525,0,0,1-.485-.075,1.111,1.111,0,0,1-.4-.212.908.908,0,0,1-.274-.336,1.087,1.087,0,0,1-.1-.461.918.918,0,0,1,.112-.448,1.1,1.1,0,0,1,.274-.349,1.606,1.606,0,0,1,.4-.237,1.568,1.568,0,0,1,.473-.075H11.1Zm2.54,0-.723-1.768a1.922,1.922,0,0,1,.548-.324,1.8,1.8,0,0,1,.585-.1,1.53,1.53,0,0,1,.61.124,1.841,1.841,0,0,1,.51.3l-.71,1.768Zm0,0" transform="translate(-0.035 -298.852)" fill="#fff" fill-rule="evenodd"/>
      <path id="Path_78532" data-name="Path 78532" d="M365.015,10.71h.795v.8h-.795Zm1.59,0h.8v.8h-.8ZM350.913,1.664h-.795v-.8h.795ZM369.952,7.2a3.365,3.365,0,0,0,1.044.48,5.133,5.133,0,0,0,1.259.149h.2l.282-.563v.779a1.056,1.056,0,0,1-.364.895,1.579,1.579,0,0,1-.994.265,2.717,2.717,0,0,1-.663-.066,4.139,4.139,0,0,1-.679-.232l-.249.762a6.123,6.123,0,0,0,.813.248,3.473,3.473,0,0,0,.712.083A2.25,2.25,0,0,0,373,9.451a2.05,2.05,0,0,0,.514-1.474V2.459h-1.259a4.231,4.231,0,0,0-1.342.2,3.21,3.21,0,0,0-1.027.563,2.607,2.607,0,0,0-.679.862,2.641,2.641,0,0,0-.232,1.093,2.445,2.445,0,0,0,.265,1.193A2.291,2.291,0,0,0,369.952,7.2Zm0-2.8a1.761,1.761,0,0,1,.48-.613,2.281,2.281,0,0,1,1.474-.53h1.276l-.447.232V7.032h-.812a2.638,2.638,0,0,1-.828-.116,2.314,2.314,0,0,1-.7-.364,1.935,1.935,0,0,1-.464-.58,1.751,1.751,0,0,1-.166-.8A1.546,1.546,0,0,1,369.952,4.4ZM352.488,1.664h-.779v-.8h.779ZM375.536,10a2.874,2.874,0,0,1-.646-.083l.2-.762a1.379,1.379,0,0,1,.215.05h.2a.8.8,0,0,0,.365-.066.393.393,0,0,0,.232-.2,1.035,1.035,0,0,0,.116-.381,2.874,2.874,0,0,0,.033-.563V2.459h.8V7.993a4.183,4.183,0,0,1-.066.828,1.616,1.616,0,0,1-.265.646,1.213,1.213,0,0,1-.464.4A1.822,1.822,0,0,1,375.536,10Zm-25.2-.1h1.641V9.3a.367.367,0,0,1,.049.083,1.268,1.268,0,0,0,.481.4,1.756,1.756,0,0,0,.712.133h14.465V2.459h-.8V9.12H353.25a1.257,1.257,0,0,1-.381-.05.542.542,0,0,1-.215-.215,1.016,1.016,0,0,1-.133-.381,4.917,4.917,0,0,1-.033-.563V2.459h-2.137a3.635,3.635,0,0,0-3.679,3.711v.016A3.611,3.611,0,0,0,350.334,9.9Zm-2.817-3.744A2.815,2.815,0,0,1,350.334,3.2h1.856l-.48.232V7.91a4.073,4.073,0,0,0,.066.828,2.24,2.24,0,0,0,.116.4h-1.541a2.853,2.853,0,0,1-2.834-2.966ZM372.63-.012h.648V.571h-.595a.233.233,0,0,0-.232.233v.233h1.018v.631H371.79V.827A.842.842,0,0,1,372.63-.012Zm0,0" transform="translate(-308.227 0.012)" fill="#fff" fill-rule="evenodd"/>
      <path id="Path_78533" data-name="Path 78533" d="M36.019,20.711h.812v7.414h-.662l-5.28-6.67.463,1.076v5.594h-.811V20.711h.778L36.35,27.1l-.331-.91ZM5.12,28.191,1.926,20.711h.927l.464,1.109L5.5,27.1l.215.513L5.633,26.8l2.532-6.09h.894L5.865,28.191Zm14.167-7.481h.844v7.414h-.844Zm9,3.724a2.918,2.918,0,0,1-2.913,3.046,2.955,2.955,0,0,1-2.929-3.062V24.4a2.924,2.924,0,1,1,5.843.016Zm-2.913-3.856a3.768,3.768,0,0,0-3.79,3.84v.016a3.721,3.721,0,0,0,3.774,3.823,3.762,3.762,0,0,0,3.806-3.84V24.4A3.734,3.734,0,0,0,25.377,20.578Zm-7.464,5.544v.016c0,1.275-1.076,2.1-2.549,2.1a4.35,4.35,0,0,1-3.029-1.192l.513-.612A3.568,3.568,0,0,0,15.4,27.48c1.009,0,1.655-.53,1.655-1.258v-.016c0-.7-.364-1.092-1.936-1.407-1.7-.381-2.482-.927-2.482-2.151V22.63A2.19,2.19,0,0,1,15.067,20.6a3.825,3.825,0,0,1,2.615.927l-.48.646a3.3,3.3,0,0,0-2.151-.811c-.96,0-1.589.529-1.589,1.191v.033c0,.695.38,1.092,2.019,1.44C17.136,24.385,17.913,24.981,17.913,26.123Zm-6.868,2H10.2V20.711h.844Zm0,0" transform="translate(-1.716 -18.295)" fill="#fff" fill-rule="evenodd"/>
    </g>
  </g>
</svg>
