<svg id="planet-icon" xmlns="http://www.w3.org/2000/svg" width="49.802" height="48.264" viewBox="0 0 49.802 48.264">
  <g id="Component_25_8" data-name="Component 25 – 8" transform="translate(0 0)">
    <g id="Group_773" data-name="Group 773" transform="translate(15.563 38.926)">
      <path id="Path_1028" data-name="Path 1028" d="M20.894,34.338H11.556A1.47,1.47,0,0,1,10,32.782V26.556A1.47,1.47,0,0,1,11.556,25a1.47,1.47,0,0,1,1.556,1.556v4.669h6.225V26.556a1.556,1.556,0,1,1,3.113,0v6.225A1.56,1.56,0,0,1,20.894,34.338Z" transform="translate(-10 -25)"/>
    </g>
    <g id="Group_774" data-name="Group 774" transform="translate(20.232 29.588)">
      <path id="Path_1029" data-name="Path 1029" d="M14.712,22.113h-.156a1.556,1.556,0,0,1,0-3.113h.156a1.47,1.47,0,0,1,1.556,1.556A1.56,1.56,0,0,1,14.712,22.113Z" transform="translate(-13 -19)"/>
    </g>
    <g id="Group_775" data-name="Group 775" transform="translate(12.421 13.927)">
      <path id="Path_1030" data-name="Path 1030" d="M17.193,28.956a1.535,1.535,0,0,1-1.556-1.4c-.467-8.871-2.8-14.318-6.537-15.563A1.882,1.882,0,0,1,8.011,9.969a1.619,1.619,0,0,1,2.023-.934c4.98,1.556,8.093,7.937,8.715,18.364a1.56,1.56,0,0,1-1.556,1.556Z" transform="translate(-7.981 -8.937)"/>
    </g>
    <g id="Group_776" data-name="Group 776" transform="translate(20.388 7.527)">
      <path id="Path_1031" data-name="Path 1031" d="M14.656,31.4h0A1.56,1.56,0,0,1,13.1,29.843v-.467c0-5.6.156-18.676,14.785-24.434a1.5,1.5,0,0,1,2.023.934A1.5,1.5,0,0,1,28.974,7.9c-12.762,4.98-12.762,16.186-12.762,21.477v.467A1.47,1.47,0,0,1,14.656,31.4Z" transform="translate(-13.1 -4.825)"/>
    </g>
    <g id="Group_777" data-name="Group 777" transform="translate(34.239)">
      <path id="Path_1032" data-name="Path 1032" d="M28.381,12.457a9.955,9.955,0,0,1-5.758-2.023A1.69,1.69,0,0,1,22,9.033,10.422,10.422,0,0,1,27.447.785,9.185,9.185,0,0,1,36.941,2.03a1.69,1.69,0,0,1,.623,1.4,9.865,9.865,0,0,1-5.447,8.248A10.7,10.7,0,0,1,28.381,12.457ZM25.268,8.411a5.554,5.554,0,0,0,5.6.311A6.792,6.792,0,0,0,34.451,3.9a5.554,5.554,0,0,0-5.6-.311A6.792,6.792,0,0,0,25.268,8.411Z" transform="translate(-22 0.012)"/>
    </g>
    <g id="Group_778" data-name="Group 778" transform="translate(0 7.736)">
      <path id="Path_1033" data-name="Path 1033" d="M9.027,15.917a8.128,8.128,0,0,1-3.268-.623A8.643,8.643,0,0,1,0,8.447a1.69,1.69,0,0,1,.623-1.4A9.777,9.777,0,0,1,9.8,5.49a8.9,8.9,0,0,1,5.758,7,1.59,1.59,0,0,1-.623,1.556A10.248,10.248,0,0,1,9.027,15.917Zm-5.758-7a5.993,5.993,0,0,0,3.58,3.424,6.714,6.714,0,0,0,5.447-.467,5.993,5.993,0,0,0-3.58-3.424A7.4,7.4,0,0,0,3.268,8.913Z" transform="translate(0 -4.959)"/>
    </g>
    <g id="Group_779" data-name="Group 779" transform="translate(7.782 31.144)">
      <path id="Path_1034" data-name="Path 1034" d="M25.232,30.894H12.782A7.706,7.706,0,0,1,5,23.113V21.556A1.47,1.47,0,0,1,6.556,20h24.9a1.47,1.47,0,0,1,1.556,1.556v1.556A7.706,7.706,0,0,1,25.232,30.894ZM8.113,23.113a4.586,4.586,0,0,0,4.669,4.669H25.232A4.586,4.586,0,0,0,29.9,23.113Z" transform="translate(-5 -20)"/>
    </g>
  </g>
</svg>
