<svg xmlns="http://www.w3.org/2000/svg" width="32.863" height="30.689" viewBox="0 0 32.863 30.689">
  <path id="saudi-tree" d="M207.133,167.469a5.346,5.346,0,0,1,.793,2.671s1.657-2.713,5.094-.451c0,0-2.924-.392-3.618,1.115,0,0,4.493-1.176,5.456,2.984,0,0-2.079-2.321-3.979-1.9,0,0,4.313,1.507,3.106,5.939,0,0-.362-3.979-3.255-4.463,0,0,2.682,2.2,1.657,6.634,0,0,.061-3.287-2.049-4.854a7,7,0,0,1-.875,6.481s1.176-3.949-.723-5.4c0,0-.785-.482-.755.964,0,0-.224,8.286.185,12.328,0,0,8.3-7.021,15.4-2.353,0,0-7.03-3.432-15.124,4.125l5.4,4.746a1.355,1.355,0,0,1,2.506.716c0,1.823-2.561,1.695-3.5.6l-5.677-5.217-.04-.123-.042.123-5.677,5.217c-.936,1.095-3.5,1.223-3.5-.6a1.356,1.356,0,0,1,2.506-.716l5.4-4.746c-8.1-7.557-15.126-4.125-15.126-4.125,7.1-4.668,15.4,2.353,15.4,2.353.411-4.042.185-12.328.185-12.328.03-1.446-.753-.964-.753-.964-1.9,1.448-.725,5.4-.725,5.4a7,7,0,0,1-.874-6.481c-2.111,1.567-2.05,4.854-2.05,4.854-1.025-4.432,1.659-6.634,1.659-6.634-2.9.483-3.256,4.463-3.256,4.463-1.208-4.432,3.1-5.939,3.1-5.939-1.9-.422-3.979,1.9-3.979,1.9.963-4.16,5.457-2.984,5.457-2.984-.692-1.507-3.618-1.115-3.618-1.115,3.437-2.262,5.1.451,5.1.451A5.314,5.314,0,0,1,207.133,167.469Zm0,0" transform="translate(-190.703 -167.469)" fill="#fff" fill-rule="evenodd"/>
</svg>
