<svg xmlns="http://www.w3.org/2000/svg" width="26.877" height="26.877" viewBox="0 0 26.877 26.877">
  <path id="ssr-icon" d="M9.912,18.16l1.439-1.439a1.536,1.536,0,0,0,.41.084,1.68,1.68,0,1,0-1.68-1.68,1.536,1.536,0,0,0,.084.41L8.726,16.974,2.594,10.841A.833.833,0,0,0,1.281,11a10.779,10.779,0,0,0,14.6,14.6.827.827,0,0,0,.158-1.313ZM10.973,0a.845.845,0,0,0-.893.84V2.5a.831.831,0,0,0,.788.835A13.484,13.484,0,0,1,23.516,16.013a.839.839,0,0,0,.835.788h1.685a.845.845,0,0,0,.84-.893A16.841,16.841,0,0,0,10.973,0Zm.016,5.04a.847.847,0,0,0-.908.845V7.57a.837.837,0,0,0,.777.835,8.386,8.386,0,0,1,7.608,7.623.844.844,0,0,0,.835.772H20.99a.85.85,0,0,0,.845-.908A11.813,11.813,0,0,0,10.989,5.04Z" transform="translate(0 0.001)" fill="#fff"/>
</svg>
