<svg xmlns="http://www.w3.org/2000/svg" width="667.305" height="700.446" viewBox="0 0 667.305 700.446">
  <path id="Union_115" data-name="Union 115" d="M304.814,669.991q14.079-12.1,27.054-25.291,12.956,13.2,27.046,25.291Q346,685.847,331.868,700.446,317.757,685.819,304.814,669.991Zm44.451-44.138q10.122-11.609,19.4-23.9,12.589,9.4,26.076,17.9-8.91,14.226-18.676,27.759C366.8,640.7,357.838,633.448,349.265,625.853Zm-80.624-6.563q13.423-8.509,25.964-17.949,9.236,12.268,19.317,23.876Q301.074,636.61,287.226,647,277.506,633.5,268.642,619.29Zm-144.07-25.111q18.471-1.68,36.708-4.911,2.886,18.272,7.355,36.3-19.72,5.422-39.7,9.117Q125.91,614.584,124.572,594.179Zm376.871,29.005q4.212-18.073,6.894-36.38,18.253,2.989,36.755,4.434-1.072,20.413-3.833,40.544Q521.234,628.334,501.443,623.185Zm-315.066-39.16q14.986-3.574,29.667-8.212,4.789,14.962,10.849,29.713-15.494,6.426-31.313,11.756Q190.283,600.793,186.377,584.024Zm256.552,19.869q5.862-14.818,10.461-29.852,14.753,4.434,29.78,7.837-3.662,16.786-8.779,33.371C463.807,611.828,453.3,608.044,442.929,603.894Zm-131.34-16.06q10.2-8.6,19.64-17.816,9.456,9.214,19.641,17.816-9.415,10.861-19.641,21.077Q321,598.719,311.589,587.834Zm-70.282-18.422q12.99-4.933,25.662-10.7,6.879,11.76,14.468,23.03-13.154,7.363-26.656,13.882Q247.671,582.761,241.307,569.412ZM388.085,580.8q7.452-11.352,14.172-23.209,12.736,5.609,25.8,10.381-6.2,13.4-13.133,26.375Q401.333,588,388.085,580.8Zm-99.491-32.693c6.675-3.53,13.3-7.22,19.821-11.111q7.545,9.195,15.809,17.933-10.163,7.1-20.587,13.644Q295.763,558.583,288.594,548.111Zm56.361,6.44q8.147-8.838,15.575-18.132c6.568,3.813,13.233,7.415,19.968,10.862q-7.034,10.54-14.791,20.644C358.717,563.656,351.775,559.195,344.956,554.551ZM124.525,531.894q15.876.875,31.565.449c.243,10.23.884,20.451,1.865,30.646q-17.054,1.834-34.361,2.263Q123.481,548.618,124.525,531.894Zm386.786,28.58q1.291-15.29,1.489-30.657c10.425.131,20.971-.145,31.541-.86q1.251,16.69,1.368,33.332Q528.42,562.108,511.311,560.475ZM177.74,531.193q13.3-1.088,26.341-3.119,2.359,12.989,5.66,25.919-13.969,3.37-28.229,5.767Q179.1,545.522,177.74,531.193Zm281.68,20.95q3.135-12.972,5.331-25.979c8.7,1.234,17.5,2.153,26.356,2.781q-1.16,14.334-3.388,28.6Q473.439,555.354,459.419,552.143ZM223.578,527.5q12.191-2.467,24.093-5.769,4.863,10.528,10.278,20.766-12.335,4.65-25.012,8.445Q227.969,539.37,223.578,527.5ZM411.072,541.27q5.281-10.285,9.979-20.9,11.956,3.152,24.2,5.464Q441,537.76,436.183,549.4,423.479,545.763,411.072,541.27ZM317.924,528.2q8.262-5.662,16.1-11.806,7.471,6.625,15.371,12.819-7.893,7.265-16.171,14.08Q325.355,535.962,317.924,528.2Zm-49.452-12.953q9.487-3.3,18.673-7.173c3.652,5.564,7.438,11.017,11.427,16.376q-9.538,4.933-19.35,9.337Q273.582,524.68,268.472,515.243Zm101.737,8.489q5.9-8.087,11.21-16.51,9.253,3.744,18.773,6.934-4.991,9.47-10.513,18.674Q379.812,528.563,370.209,523.732Zm-193.9-13.124q-.56-13.205-.192-26.388,11.448,1.759,22.989,2.915.764,12.323,2.421,24.671Q188.866,511.514,176.311,510.608ZM469.2,485.153q11.515-1.292,22.929-3.209.527,13.174.157,26.392-12.552,1.071-25.192,1.523Q468.578,497.491,469.2,485.153Zm-253.352,2.83c6.664.013,13.352-.184,19.995-.57q2.369,9.689,5.341,19.23-10.63,1.505-21.344,2.407Q217.518,498.565,215.849,487.983ZM427.367,505.2q2.865-9.581,5.107-19.3,9.957.467,20,.312-1.558,10.616-3.729,21.119Q438.031,506.584,427.367,505.2ZM125.3,502.324q1.829-14.586,4.544-29.122,13.39,3.682,27.032,6.47c-.894,9.035-1.536,18.068-1.876,27.129Q140.055,505.006,125.3,502.324Zm385.057-23.836c8.89-1.9,17.693-4.04,26.413-6.494q2.848,14.8,4.791,29.667-14.44,2.7-29.111,4.546C512.063,496.954,511.349,487.7,510.357,478.488Zm-445.662,6.47q5.424-16.455,12.143-32.294,14.227,5.916,28.823,10.838-4.938,14.912-8.731,30.4Q80.618,489.976,64.695,484.958Zm497.594-24.48q14.535-5.1,28.666-11.211,6.944,15.727,12.589,32.136-15.859,5.223-32.125,9.359Q567.429,475.342,562.289,460.479ZM.582,459.763q9.4-18.016,20.334-35.29,15.924,9.509,32.556,17.643-8.416,16.477-15.444,33.659Q18.926,468.56.582,459.763ZM614.2,438.418q16.507-8.327,32.316-18.081,11.18,17.11,20.79,35.023-18.218,9-37.227,16.509Q622.822,454.8,614.2,438.418ZM181.478,466.741c.521-7.122,1.283-14.232,2.228-21.311q9.612,2.9,19.326,5.214c-.337,6.628-.5,13.281-.423,19.954C195.532,469.512,188.483,468.245,181.478,466.741Zm287.18-23.366q9.634-2.538,19.137-5.684c1.111,7.079,2.054,14.187,2.767,21.311q-10.427,2.488-20.981,4.366Q469.438,453.336,468.657,443.375Zm-334.7,9.979q2.793-12.285,6.228-24.454,11.32,5.187,22.9,9.53-2.284,11.374-3.944,22.834Q146.442,457.746,133.961,453.355Zm368.846-21.044q11.1-4.281,21.992-9.359,3.533,11.86,6.467,23.824c-7.98,2.892-16.05,5.5-24.153,7.837C505.87,447.164,504.454,439.714,502.808,432.311ZM87.2,430.194q6.462-12.936,13.789-25.3,11.392,6.93,23.111,12.987-5.728,11.867-10.678,24.275Q100.123,436.657,87.2,430.194ZM543.244,415.11q11.647-6.2,22.944-13.29,7.51,12.265,14.127,25.111-12.847,6.652-26.064,12.308Q549.154,426.923,543.244,415.11Zm-395.2-3.337q4.3-9.83,9.18-19.372,8.09,5.93,16.5,11.32c-2.525,6.155-4.885,12.373-7.012,18.685Q157.24,417.363,148.046,411.774Zm343.686-10.8c5.48-3.749,10.851-7.656,16.121-11.769q5.136,9.439,9.751,19.147-8.982,5.86-18.3,11.149Q495.787,410.109,491.732,400.976ZM37.167,400.5q9.706-13.5,20.391-26.4,12.316,10.053,25.24,18.952Q74.071,405.7,66.266,418.925,51.39,410.36,37.167,400.5ZM584.219,389.75q12.769-9.087,24.989-19.288,10.846,12.752,20.751,26.134Q615.869,406.63,601.1,415.39,593.106,402.274,584.219,389.75ZM111.946,387.4q7.349-10.995,15.4-21.443,8.194,8.164,16.857,15.892-6.642,10.41-12.576,21.371Q121.557,395.552,111.946,387.4Zm410.735-8.041q8.543-7.841,16.642-16.113c5.444,6.882,10.69,13.957,15.676,21.226q-9.507,8.272-19.458,16.074Q529.438,389.68,522.681,379.363ZM75.606,350.385Q85.7,339.7,96.458,329.558q8.656,10.866,18.021,21.166-9.089,10.158-17.526,20.812Q85.94,361.248,75.606,350.385Zm476.4-.679q9.075-10.137,17.514-20.8,11.026,10.288,21.347,21.141-10.086,10.7-20.841,20.836Q561.355,360.017,552.007,349.706Zm-410.1-1.537q7.075-8.107,14.6-15.767,5.911,8.071,12.311,15.7-6.385,7.692-12.322,15.772Q149,356.231,141.907,348.169Zm355.716-2.236q6.275-7.725,12.108-15.868,7.615,7.586,14.777,15.577-6.928,8.167-14.357,15.894Q504.113,353.513,497.623,345.933Zm-386.135-29.98q9.487-8.255,19.458-16.074,6.074,10.87,12.856,21.2-8.564,7.838-16.643,16.109Q118.975,326.87,111.487,315.953Zm407.2.906q6.457-9.993,12.249-20.525,9.853,7.51,19.268,15.445-7.107,10.542-14.889,20.573Q527.212,324.406,518.69,316.859ZM36.9,300.63Q50.98,290.522,65.772,281.7q7.982,13.174,16.87,25.748-12.771,9.144-24.973,19.4Q46.82,314.061,36.9,300.63Zm546.346,3.519q8.708-12.682,16.531-25.966,14.878,8.615,29.1,18.54-9.708,13.55-20.4,26.5Q596.161,313.117,583.249,304.149ZM149.038,291.6q8.977-5.844,18.3-11.152,3.505,9.418,7.572,18.529c-5.477,3.75-10.86,7.654-16.135,11.769Q153.642,301.3,149.038,291.6Zm342.247,6.481c2.213-6.267,4.259-12.592,6.083-19.013,6.469,3.058,12.87,6.286,19.146,9.724-2.528,6.675-5.287,13.279-8.212,19.785Q499.917,303.059,491.285,298.077ZM87.393,269.666q12.828-6.623,26.054-12.287,5.095,12.313,11,24.114Q112.8,287.7,101.493,294.8,94.022,282.52,87.393,269.666ZM541.1,278.747q5.731-11.86,10.681-24.27,13.277,5.5,26.216,11.961-6.438,12.934-13.774,25.314Q552.832,284.8,541.1,278.747ZM0,242.466q18.218-9,37.238-16.509,7.241,17.069,15.868,33.452Q36.6,267.737,20.792,277.479,9.615,260.373,0,242.466Zm135.377,10.7q11.954-4.317,24.15-7.835c1.247,7.461,2.663,14.9,4.307,22.313q-11.1,4.267-21.991,9.348Q138.311,265.131,135.377,253.17Zm476.767,2.554q8.416-16.475,15.431-33.658,19.116,7.222,37.446,16.013-9.4,18.016-20.332,35.29Q628.782,263.862,612.145,255.723ZM503.4,262.01q2.289-11.374,3.929-22.834,12.7,3.521,25.18,7.912-2.788,12.277-6.229,24.454Q514.965,266.352,503.4,262.01ZM176.07,240.942q10.432-2.486,21-4.367.146,10.036.919,19.992c-6.435,1.692-12.8,3.583-19.131,5.684Q177.164,251.64,176.07,240.942Zm287.385,8.853q.512-9.943.412-19.954c7.076,1.087,14.131,2.355,21.143,3.858-.534,7.121-1.294,14.233-2.237,21.311Q473.175,252.087,463.455,249.795ZM64.476,216.183q15.835-5.168,32.063-9.288,4.027,15.384,9.2,30.2-14.494,5.043-28.626,11.127Q70.185,232.529,64.476,216.183ZM559.22,234.1q4.969-14.861,8.807-30.307,16.292,3.9,32.171,8.866-5.459,16.4-12.215,32.2Q573.792,238.968,559.22,234.1ZM125.067,198.285q14.461-2.7,29.125-4.548.582,13.883,2.082,27.722-13.32,2.848-26.416,6.493Q127.029,213.153,125.067,198.285Zm383.546,21.164c.882-9.225,1.453-18.494,1.732-27.744q14.672,1.654,29.168,4.163-1.735,14.893-4.4,29.727Q521.98,222.093,508.613,219.449ZM174.352,191.61q12.538-1.074,25.194-1.523-1.488,12.371-2.106,24.707-11.517,1.292-22.942,3.2Q173.953,204.829,174.352,191.61Zm293.011,21.7c-.494-8.215-1.32-16.437-2.417-24.675,8.438.2,16.846.583,25.215,1.2q.558,13.2.195,26.388Q478.928,214.444,467.363,213.31Zm-253.556.057c1.282-7.025,2.744-14.042,4.436-21.007,7.124.727,14.2,1.694,21.25,2.83q-3.174,9.526-5.757,19.173Q223.812,213.565,213.807,213.367Zm211.262-19.118c7.039-1.235,14.1-2.288,21.218-3.11q2.663,10.415,4.69,20.958-9.979.312-19.911,1.237Q428.365,203.734,425.069,194.249Zm-48.834-16c6.409-3.132,12.917-6.109,19.506-8.867q5.443,9.252,10.341,18.831-9.523,3.066-18.792,6.713C383.769,189.263,380.1,183.7,376.234,178.246Zm-109.785,7.56q4.993-9.49,10.5-18.687,9.866,4.264,19.47,9.094-5.875,8.09-11.21,16.507Q275.976,188.989,266.449,185.807Zm145.243-22.664q11.9-4.374,24.116-7.948,4.7,11.393,8.853,23.064-11.774,2.323-23.271,5.43C418.344,176.733,415.089,169.887,411.692,163.142Zm-94.442,7.6q7.852-7.26,16.155-14.069,7.876,7.313,15.3,15.083-8.251,5.659-16.083,11.8Q325.143,176.937,317.25,170.739Zm-95.859,3.372q4.245-11.92,9.068-23.562,12.7,3.627,25.11,8.129c-3.52,6.857-6.872,13.835-9.993,20.9Q233.625,176.422,221.391,174.111Zm-42.636-5.468q1.2-14.331,3.414-28.626,14.257,2.213,28.3,5.419-3.135,12.97-5.333,25.979Q192.071,169.56,178.754,168.642Zm274.711-24.515q13.974-3.389,28.217-5.78,2.414,14.24,3.774,28.564-13.294,1.112-26.33,3.121Q456.77,157.063,453.465,144.128ZM123.13,135.276q17.349.161,34.472,1.728-1.325,15.348-1.537,30.745-15.71-.163-31.615.956Q123.221,151.957,123.13,135.276Zm385,30.463q-.422-15.4-1.937-30.729,17.112-1.8,34.446-2.167.142,16.69-.883,33.441Q523.849,165.378,508.132,165.739ZM286.14,152.667q7.035-10.542,14.778-20.646,10.487,6.4,20.753,13.375-8.125,8.84-15.564,18.132Q296.236,157.812,286.14,152.667Zm60.631-10.475q10.468-7.109,21.223-13.655,8.128,10.432,15.469,21.4-10.338,5.187-20.4,10.958Q355.275,151.3,346.771,142.193Zm-108.187-10.21q6.192-13.421,13.138-26.375,13.57,6.33,26.824,13.533c-4.973,7.583-9.676,15.323-14.174,23.209Q251.651,136.761,238.583,131.983ZM385.53,118.355q12.922-7.167,26.175-13.533,7.217,13.133,13.655,26.776c-8.482,3.178-16.864,6.654-25.145,10.366Q393.25,129.914,385.53,118.355Zm-73.941-5.746q9.415-10.866,19.64-21.078,10.233,10.194,19.641,21.078-10.192,8.6-19.641,17.816Q321.8,121.228,311.589,112.609Zm-125.08,4.04q3.629-16.779,8.674-33.332Q211,88.453,226.556,94.7q-5.823,14.806-10.365,29.812Q201.477,120.046,186.509,116.649ZM436.728,93.6q15.458-6.438,31.218-11.792Q473.2,98.3,477.041,115.03q-14.936,3.61-29.573,8.249Q442.736,108.329,436.728,93.6ZM123.766,107.083q1.05-20.408,3.833-40.541c13.337,2.314,26.629,5.152,39.8,8.6q-4.192,18.066-6.881,36.378C148.351,109.526,136.076,108.064,123.766,107.083Zm371.846-33.8q19.7-5.424,39.694-9.105,3.013,20.079,4.356,40.491-18.471,1.7-36.7,4.909Q500.067,91.3,495.612,73.279ZM268.642,81.152q8.852-14.2,18.584-27.708,13.846,10.374,26.7,21.781Q303.836,86.817,294.605,99.1,282.088,89.687,268.642,81.152Zm80.624-6.568c8.573-7.6,17.536-14.839,26.8-21.755q9.78,13.531,18.676,27.755-13.479,8.49-26.076,17.9Q359.391,86.2,349.265,74.585ZM304.814,30.453Q317.731,14.6,331.868,0q14.116,14.624,27.046,30.453-14.063,12.1-27.046,25.288Q318.917,42.553,304.814,30.453Z" transform="translate(0 0)" fill="#fff" opacity="0.05"/>
</svg>
