<svg xmlns="http://www.w3.org/2000/svg" width="260" height="274" viewBox="0 0 262.057 275.072">
  <path id="Union_113" data-name="Union 113" d="M119.7,263.112q5.529-4.754,10.624-9.932,5.088,5.182,10.621,9.932-5.073,6.227-10.621,11.96Q124.786,269.328,119.7,263.112Zm17.456-17.333q3.975-4.559,7.618-9.384,4.944,3.69,10.24,7.028-3.5,5.587-7.334,10.9C144.046,251.607,140.527,248.761,137.16,245.779ZM105.5,243.2q5.271-3.342,10.2-7.049,3.627,4.818,7.586,9.376Q118.235,250,112.8,254.082,108.979,248.782,105.5,243.2ZM48.921,233.34q7.254-.66,14.415-1.928,1.133,7.176,2.889,14.255-7.744,2.129-15.59,3.58Q49.446,241.353,48.921,233.34Zm148,11.391q1.654-7.1,2.707-14.287,7.168,1.174,14.434,1.741-.421,8.016-1.505,15.922Q204.694,246.753,196.921,244.731ZM73.192,229.352q5.885-1.4,11.651-3.225Q86.723,232,89.1,237.8q-6.085,2.524-12.3,4.617Q74.726,235.937,73.192,229.352Zm100.751,7.8q2.3-5.819,4.108-11.723,5.794,1.741,11.695,3.077-1.438,6.592-3.448,13.105C182.142,240.271,178.013,238.785,173.943,237.155Zm-51.579-6.307q4-3.378,7.713-7,3.714,3.618,7.713,7-3.7,4.265-7.713,8.277Q126.059,235.123,122.364,230.848Zm-27.6-7.234q5.1-1.937,10.078-4.2,2.7,4.618,5.682,9.044-5.166,2.892-10.468,5.451Q97.263,228.856,94.763,223.614Zm57.641,4.474q2.927-4.458,5.566-9.114,5,2.2,10.131,4.077-2.435,5.264-5.157,10.358Q157.607,230.915,152.4,228.087Zm-39.071-12.839c2.621-1.386,5.224-2.835,7.784-4.363q2.963,3.611,6.208,7.042-3.991,2.787-8.085,5.358Q116.149,219.361,113.334,215.248Zm22.134,2.529q3.2-3.471,6.117-7.121c2.579,1.5,5.2,2.912,7.842,4.265q-2.762,4.139-5.808,8.107C140.872,221.353,138.146,219.6,135.467,217.778ZM48.9,208.88q6.235.344,12.4.176c.1,4.018.347,8.031.732,12.035q-6.7.72-13.494.889Q48.492,215.447,48.9,208.88ZM200.8,220.1q.507-6,.585-12.039c4.094.051,8.235-.057,12.386-.338q.491,6.554.537,13.09Q207.516,220.745,200.8,220.1Zm-131-11.5q5.222-.427,10.344-1.225.926,5.1,2.223,10.179-5.486,1.324-11.086,2.265Q70.334,214.232,69.8,208.6Zm110.618,8.227q1.231-5.094,2.093-10.2c3.416.484,6.874.845,10.35,1.092q-.456,5.629-1.331,11.232Q185.924,218.093,180.418,216.832ZM87.8,207.156q4.788-.969,9.462-2.265,1.91,4.134,4.036,8.155-4.844,1.826-9.823,3.317Q89.526,211.816,87.8,207.156Zm73.631,5.406q2.074-4.039,3.919-8.207,4.7,1.238,9.5,2.146-1.668,4.683-3.561,9.254Q166.3,214.326,161.432,212.562Zm-36.58-5.134q3.244-2.223,6.323-4.636,2.934,2.6,6.036,5.034-3.1,2.853-6.351,5.529Q127.77,210.478,124.852,207.428Zm-19.42-5.087q3.726-1.3,7.333-2.817c1.434,2.185,2.921,4.326,4.487,6.431q-3.746,1.937-7.6,3.667Q107.438,206.047,105.432,202.341Zm39.953,3.334q2.316-3.176,4.4-6.484,3.634,1.47,7.372,2.723-1.96,3.719-4.128,7.333Q149.156,207.572,145.385,205.675Zm-76.146-5.154q-.22-5.186-.075-10.363,4.5.691,9.028,1.145.3,4.839.951,9.689Q74.169,200.876,69.239,200.521Zm115.021-10q4.522-.507,9-1.26.207,5.174.062,10.365-4.929.421-9.893.6Q184.015,195.37,184.26,190.524Zm-99.494,1.111c2.617.005,5.243-.072,7.852-.224q.93,3.8,2.1,7.552-4.174.591-8.382.945Q85.421,195.791,84.766,191.636Zm83.065,6.762q1.125-3.762,2.006-7.58,3.91.184,7.855.122-.612,4.169-1.464,8.294Q172.019,198.94,167.831,198.4ZM49.207,197.267q.718-5.728,1.785-11.436,5.258,1.446,10.616,2.541c-.351,3.548-.6,7.1-.737,10.654Q55,198.321,49.207,197.267Zm151.215-9.361c3.491-.746,6.948-1.586,10.373-2.55q1.118,5.813,1.881,11.65-5.671,1.062-11.432,1.785C201.092,195.159,200.812,191.526,200.422,187.907ZM25.406,190.448q2.13-6.462,4.769-12.682,5.587,2.323,11.319,4.256-1.939,5.856-3.429,11.937Q31.659,192.418,25.406,190.448Zm195.41-9.613q5.708-2,11.257-4.4,2.727,6.176,4.944,12.62-6.228,2.051-12.616,3.676Q222.835,186.672,220.816,180.834ZM.229,180.553q3.693-7.075,7.985-13.859,6.253,3.734,12.785,6.929-3.305,6.471-6.065,13.218Q7.432,184.008.229,180.553ZM241.2,172.171q6.483-3.27,12.691-7.1,4.39,6.719,8.164,13.754-7.154,3.535-14.619,6.483Q244.588,178.6,241.2,172.171ZM71.268,183.294c.2-2.8.5-5.589.875-8.369q3.775,1.14,7.59,2.048c-.132,2.6-.2,5.215-.166,7.836C76.787,184.382,74.019,183.884,71.268,183.294Zm112.778-9.176q3.783-1,7.515-2.232c.436,2.78.807,5.571,1.086,8.369q-4.095.977-8.24,1.714Q184.353,178.03,184.046,174.118ZM52.608,178.037q1.1-4.824,2.446-9.6,4.446,2.037,8.991,3.743-.9,4.467-1.549,8.967Q57.509,179.761,52.608,178.037Zm144.849-8.264q4.36-1.681,8.636-3.676,1.388,4.658,2.54,9.356c-3.134,1.136-6.3,2.16-9.485,3.077C198.66,175.606,198.1,172.68,197.457,169.773Zm-163.213-.832q2.538-5.08,5.415-9.935,4.474,2.721,9.076,5.1-2.25,4.66-4.193,9.533Q39.319,171.48,34.245,168.941Zm179.092-5.923q4.574-2.435,9.01-5.219,2.949,4.817,5.548,9.861-5.045,2.612-10.236,4.833Q215.658,167.657,213.337,163.018Zm-155.2-1.31q1.69-3.86,3.605-7.608,3.177,2.329,6.478,4.446c-.992,2.417-1.918,4.859-2.754,7.338Q61.75,163.9,58.139,161.708Zm134.969-4.24c2.152-1.472,4.261-3.007,6.331-4.622q2.017,3.707,3.829,7.519-3.527,2.3-7.186,4.378Q194.7,161.054,193.108,157.467ZM14.6,157.282q3.812-5.3,8.008-10.369,4.836,3.948,9.912,7.443-3.427,4.966-6.493,10.16Q20.181,161.152,14.6,157.282Zm214.832-4.223q5.015-3.569,9.814-7.574,4.259,5.008,8.149,10.263-5.534,3.94-11.333,7.381Q232.918,157.977,229.428,153.059Zm-185.466-.921q2.886-4.318,6.047-8.421,3.218,3.206,6.62,6.241-2.608,4.088-4.939,8.393Q47.737,155.337,43.962,152.137Zm161.3-3.158q3.355-3.079,6.535-6.328c2.138,2.7,4.2,5.481,6.156,8.336q-3.733,3.248-7.641,6.313Q207.916,153.031,205.262,148.98ZM29.691,137.6q3.963-4.2,8.189-8.179,3.4,4.267,7.077,8.312-3.569,3.989-6.883,8.173Q33.75,141.866,29.691,137.6Zm187.087-.267q3.564-3.981,6.878-8.169,4.33,4.04,8.383,8.3-3.961,4.2-8.184,8.183Q220.45,141.382,216.778,137.333Zm-161.05-.6q2.778-3.184,5.733-6.192,2.321,3.169,4.834,6.164-2.508,3.021-4.839,6.194Q58.515,139.9,55.728,136.729Zm139.693-.878q2.464-3.034,4.755-6.232,2.99,2.979,5.8,6.117-2.721,3.207-5.638,6.242Q197.97,138.828,195.421,135.851ZM43.782,124.078q3.726-3.242,7.642-6.312,2.385,4.269,5.049,8.326-3.363,3.078-6.536,6.326Q46.723,128.365,43.782,124.078Zm159.913.356q2.536-3.924,4.81-8.06,3.869,2.949,7.567,6.065-2.791,4.14-5.847,8.079Q207.041,127.4,203.695,124.434Zm-189.2-6.373q5.528-3.969,11.337-7.433,3.135,5.173,6.625,10.112-5.015,3.591-9.807,7.619Q18.386,123.335,14.492,118.06Zm214.555,1.382q3.42-4.981,6.492-10.2,5.843,3.383,11.428,7.281-3.813,5.321-8.013,10.407Q234.118,122.964,229.047,119.442Zm-170.519-4.93q3.525-2.295,7.185-4.38,1.377,3.7,2.974,7.276c-2.151,1.473-4.265,3.006-6.336,4.622Q60.337,118.325,58.529,114.512Zm134.4,2.545c.869-2.461,1.672-4.945,2.389-7.467,2.54,1.2,5.054,2.469,7.519,3.819-.993,2.621-2.076,5.215-3.225,7.77Q196.322,119.014,192.932,117.058ZM34.32,105.9q5.038-2.6,10.232-4.825,2,4.836,4.321,9.47-4.573,2.437-9.015,5.225Q36.924,110.948,34.32,105.9ZM212.5,109.467q2.251-4.658,4.194-9.531,5.214,2.158,10.3,4.7-2.528,5.079-5.409,9.941Q217.1,111.845,212.5,109.467ZM0,95.219q7.154-3.534,14.624-6.483,2.844,6.7,6.232,13.137-6.482,3.27-12.69,7.1Q3.776,102.251,0,95.219Zm53.164,4.2q4.694-1.7,9.484-3.077c.49,2.93,1.046,5.851,1.691,8.762q-4.361,1.676-8.636,3.671Q54.316,104.119,53.164,99.422Zm187.231,1q3.3-6.47,6.06-13.218,7.507,2.836,14.705,6.289-3.691,7.075-7.984,13.859Q246.929,103.621,240.4,100.425Zm-42.7,2.469q.9-4.467,1.543-8.967,4.989,1.383,9.888,3.107-1.1,4.821-2.446,9.6Q202.232,104.6,197.692,102.894ZM69.144,94.62q4.1-.976,8.245-1.715.058,3.941.361,7.851c-2.527.665-5.025,1.407-7.513,2.232Q69.574,98.821,69.144,94.62ZM182,98.1q.2-3.9.162-7.836c2.779.427,5.549.925,8.3,1.515-.21,2.8-.508,5.59-.879,8.369Q185.82,99,182,98.1ZM25.32,84.9q6.219-2.03,12.591-3.647,1.581,6.041,3.614,11.86-5.692,1.98-11.242,4.37Q27.562,91.317,25.32,84.9Zm194.291,7.035q1.951-5.836,3.458-11.9,6.4,1.53,12.634,3.482-2.144,6.439-4.8,12.647Q225.334,93.845,219.611,91.933ZM49.115,77.869q5.679-1.062,11.438-1.786.229,5.452.818,10.887Q56.139,88.088,51,89.519,49.885,83.707,49.115,77.869ZM199.737,86.18c.346-3.623.57-7.263.68-10.9q5.762.649,11.455,1.635-.681,5.848-1.729,11.674Q204.987,87.218,199.737,86.18ZM68.47,75.247q4.924-.422,9.894-.6-.584,4.858-.827,9.7-4.523.507-9.01,1.258Q68.313,80.438,68.47,75.247Zm115.068,8.521c-.194-3.226-.518-6.455-.949-9.69,3.314.078,6.615.229,9.9.471q.219,5.185.077,10.363Q188.08,84.214,183.538,83.769Zm-99.574.023c.5-2.759,1.077-5.514,1.742-8.25,2.8.286,5.576.665,8.345,1.111Q92.8,80.394,91.79,84.182,87.893,83.869,83.964,83.791Zm82.965-7.508c2.764-.485,5.538-.9,8.333-1.221q1.046,4.09,1.842,8.23-3.919.122-7.819.486Q168.223,80.008,166.929,76.283ZM147.751,70c2.517-1.23,5.072-2.4,7.66-3.482q2.138,3.633,4.061,7.395-3.74,1.2-7.38,2.636C150.71,74.325,149.271,72.14,147.751,70Zm-43.114,2.969q1.961-3.727,4.123-7.339,3.874,1.675,7.646,3.571-2.307,3.177-4.4,6.483Q108.378,74.218,104.637,72.968Zm57.038-8.9q4.673-1.718,9.47-3.121,1.845,4.474,3.476,9.057-4.624.912-9.139,2.132C164.288,69.4,163.01,66.716,161.675,64.068Zm-37.088,2.983q3.084-2.851,6.344-5.525,3.093,2.872,6.009,5.923-3.24,2.222-6.316,4.634Q127.687,69.485,124.587,67.051ZM86.942,68.375q1.667-4.681,3.561-9.253,4.987,1.424,9.861,3.192c-1.382,2.693-2.7,5.433-3.924,8.206Q91.747,69.283,86.942,68.375ZM70.2,66.228q.472-5.628,1.341-11.242,5.6.869,11.113,2.128-1.231,5.093-2.094,10.2Q75.428,66.588,70.2,66.228ZM178.08,56.6q5.488-1.331,11.081-2.27.948,5.592,1.482,11.217-5.221.437-10.34,1.226Q179.378,61.68,178.08,56.6ZM48.354,53.124q6.813.063,13.537.678-.52,6.027-.6,12.074-6.17-.064-12.416.375Q48.39,59.675,48.354,53.124ZM199.548,65.087q-.166-6.048-.76-12.068,6.72-.706,13.527-.851.056,6.554-.347,13.133Q205.721,64.946,199.548,65.087ZM112.37,59.954q2.763-4.14,5.8-8.108,4.118,2.515,8.15,5.253-3.191,3.472-6.112,7.121Q116.335,61.974,112.37,59.954Zm23.81-4.114q4.111-2.792,8.334-5.362,3.192,4.1,6.075,8.4-4.06,2.037-8.01,4.3Q139.52,59.415,136.18,55.84ZM93.694,51.831q2.432-5.271,5.159-10.358,5.329,2.486,10.534,5.315c-1.953,2.978-3.8,6.018-5.566,9.114Q98.826,53.707,93.694,51.831ZM151.4,46.479q5.075-2.814,10.279-5.315,2.834,5.158,5.363,10.515c-3.331,1.248-6.623,2.613-9.874,4.071Q154.433,51.019,151.4,46.479Zm-29.037-2.257q3.7-4.267,7.713-8.277,4.018,4,7.713,8.277-4,3.377-7.713,7Q126.373,47.607,122.364,44.223Zm-49.12,1.586q1.425-6.589,3.406-13.09,6.212,2.017,12.32,4.469Q86.684,43,84.9,48.9,79.122,47.143,73.244,45.809Zm98.263-9.052q6.071-2.528,12.26-4.631,2.065,6.476,3.572,13.047-5.866,1.418-11.614,3.239Q173.867,42.542,171.507,36.757Zm-122.9,5.3q.412-8.014,1.505-15.921c5.238.909,10.457,2.023,15.63,3.378Q64.094,36.6,63.038,43.8C58.259,43.012,53.438,42.438,48.6,42.053ZM194.632,28.778q7.736-2.13,15.588-3.576,1.183,7.885,1.711,15.9-7.254.669-14.411,1.928Q196.381,35.856,194.632,28.778ZM105.5,31.869q3.476-5.577,7.3-10.881,5.437,4.074,10.484,8.553-3.961,4.552-7.586,9.376Q110.779,35.221,105.5,31.869ZM137.16,29.29c3.367-2.983,6.887-5.827,10.524-8.543q3.841,5.314,7.334,10.9-5.293,3.334-10.24,7.029Q141.136,33.852,137.16,29.29ZM119.7,11.959Q124.776,5.733,130.328,0q5.543,5.743,10.621,11.959-5.523,4.753-10.621,9.931Q125.242,16.711,119.7,11.959Z" transform="translate(0 0)" fill="#212d37" opacity="0.05"/>
</svg>
