<svg xmlns="http://www.w3.org/2000/svg" xmlns:xlink="http://www.w3.org/1999/xlink" width="213.543" height="143.373" viewBox="0 0 213.543 143.373">
  <defs>
    <clipPath id="clip-path">
      <path id="Path_78529" data-name="Path 78529" d="M3,395H213.2v11.577H3Zm0,0" transform="translate(-3 -395)" fill="#2d2f37"/>
    </clipPath>
  </defs>
  <g id="surface1" transform="translate(0 0)">
    <path id="Path_78435" data-name="Path 78435" d="M208.25,280.277q-1.364.622-2.766,1.153.686,1.437,1.452,2.824,1.454-.7,2.872-1.5Q208.99,281.545,208.25,280.277Zm0,0" transform="translate(-136.936 -186.758)" fill="#2d2f37" fill-rule="evenodd"/>
    <path id="Path_78436" data-name="Path 78436" d="M11.365,147.107l-8.314-6.7S10.822,127.992,25,129.323c0,0,11.987.627,15.671,10.265,0,0,4.16,12.857-5.4,21.361,0,0-15.146,13.282-21.221,16.6l7.209-3.077H42.324v10.366H2.313v-9.8l22.193-17.9c4.685-3.78,8.156-11.38,2.428-16.062A6.8,6.8,0,0,0,21.3,139.69C17.285,140.406,13.56,144.6,11.365,147.107Zm0,0" transform="translate(-1.553 -86.104)" fill="#2d2f37" fill-rule="evenodd"/>
    <path id="Path_78437" data-name="Path 78437" d="M337.124,141.461l-.009-9.961h36.51v8.9L359.91,153.832s11.475,1.151,14.266,11.89c3.145,12.1-7.573,22.285-20.384,21.377,0,0-11.016.524-19.671-9.574l7.6-7.474s5.641,7.344,13.771,6.295c0,0,7.108,0,7.465-6.248.469-8.232-9.31-8.537-15.6-7.785l-1.836-7.344L363.1,137.395l-6.951,4.066Zm0,0" transform="translate(-222.654 -87.621)" fill="#2d2f37" fill-rule="evenodd"/>
    <path id="Path_78438" data-name="Path 78438" d="M496.869,127.641a28.5,28.5,0,1,1-28.67,28.5A28.64,28.64,0,0,1,496.869,127.641Zm0,10.872c9.086,0,16.5,7.916,16.5,17.623s-7.41,17.622-16.5,17.622-16.5-7.916-16.5-17.622S487.783,138.513,496.869,138.513Zm0,0" transform="translate(-311.997 -85.049)" fill="#2d2f37" fill-rule="evenodd"/>
    <path id="Path_78439" data-name="Path 78439" d="M230.3,133.578q1.019-.993,2.117-1.92-1.015-1.171-2.117-2.271-1.1,1.1-2.116,2.271Q229.282,132.585,230.3,133.578Zm0,0" transform="translate(-152.063 -86.213)" fill="#2d2f37" fill-rule="evenodd"/>
    <path id="Path_78440" data-name="Path 78440" d="M228.911,105.831q1.4-1.421,2.914-2.725-1.392-1.708-2.914-3.282-1.521,1.576-2.915,3.282Q227.513,104.41,228.911,105.831Zm0,0" transform="translate(-150.604 -66.513)" fill="#2d2f37" fill-rule="evenodd"/>
    <path id="Path_78441" data-name="Path 78441" d="M242.443,121.807q1.357-1.013,2.81-1.929-.96-1.533-2.012-2.991c-1,.745-1.964,1.526-2.888,2.344Q241.443,120.483,242.443,121.807Zm0,0" transform="translate(-160.171 -77.883)" fill="#2d2f37" fill-rule="evenodd"/>
    <path id="Path_78442" data-name="Path 78442" d="M261.561,153.02c-.328-.749-.679-1.487-1.045-2.214q1.282-.471,2.6-.857.506,1.228.954,2.486Q262.8,152.685,261.561,153.02Zm0,0" transform="translate(-173.607 -99.914)" fill="#2d2f37" fill-rule="evenodd"/>
    <path id="Path_78443" data-name="Path 78443" d="M250.254,157.284c-.379-.61-.774-1.209-1.191-1.8.691-.338,1.392-.658,2.1-.955q.587,1,1.114,2.029Q251.253,156.891,250.254,157.284Zm0,0" transform="translate(-165.975 -102.967)" fill="#2d2f37" fill-rule="evenodd"/>
    <path id="Path_78444" data-name="Path 78444" d="M253.649,137.682q-.751-1.3-1.583-2.544,1.393-.772,2.821-1.458.778,1.415,1.472,2.885Q254.987,137.079,253.649,137.682Zm0,0" transform="translate(-167.976 -89.073)" fill="#2d2f37" fill-rule="evenodd"/>
    <path id="Path_78445" data-name="Path 78445" d="M241.3,144.826q-.839-1.034-1.756-2.015,1.128-.766,2.287-1.471.876,1.124,1.667,2.306Q242.387,144.2,241.3,144.826Zm0,0" transform="translate(-159.634 -94.178)" fill="#2d2f37" fill-rule="evenodd"/>
    <path id="Path_78446" data-name="Path 78446" d="M217.111,122.006q1-1.322,2.082-2.573-1.384-1.228-2.877-2.347-1.048,1.454-2,2.986Q215.759,120.989,217.111,122.006Zm0,0" transform="translate(-142.819 -78.016)" fill="#2d2f37" fill-rule="evenodd"/>
    <path id="Path_78447" data-name="Path 78447" d="M230.3,283.93q1.019.993,2.117,1.92-1.015,1.17-2.117,2.272-1.1-1.1-2.116-2.272Q229.282,284.923,230.3,283.93Zm0,0" transform="translate(-152.063 -189.193)" fill="#2d2f37" fill-rule="evenodd"/>
    <path id="Path_78448" data-name="Path 78448" d="M228.911,308.051q1.4,1.422,2.914,2.725-1.392,1.709-2.914,3.282-1.521-1.576-2.915-3.282Q227.513,309.472,228.911,308.051Zm0,0" transform="translate(-150.604 -205.265)" fill="#2d2f37" fill-rule="evenodd"/>
    <path id="Path_78449" data-name="Path 78449" d="M242.443,294.246q1.357,1.013,2.81,1.929-.96,1.533-2.012,2.991c-1-.745-1.964-1.526-2.888-2.345Q241.443,295.57,242.443,294.246Zm0,0" transform="translate(-160.171 -196.067)" fill="#2d2f37" fill-rule="evenodd"/>
    <path id="Path_78450" data-name="Path 78450" d="M217.111,294.047q1,1.322,2.082,2.573-1.384,1.228-2.877,2.347-1.048-1.455-2-2.986Q215.759,295.064,217.111,294.047Zm0,0" transform="translate(-142.819 -195.934)" fill="#2d2f37" fill-rule="evenodd"/>
    <path id="Path_78451" data-name="Path 78451" d="M274.618,147.923q1.4-.219,2.837-.336-.147-1.542-.407-3.078-1.535.256-3.041.623Q274.364,146.523,274.618,147.923Zm0,0" transform="translate(-182.597 -96.289)" fill="#2d2f37" fill-rule="evenodd"/>
    <path id="Path_78452" data-name="Path 78452" d="M288.413,125.444q1.961-.348,3.955-.529-.141-2.2-.469-4.363-2.152.4-4.278.981Q288.1,123.474,288.413,125.444Zm0,0" transform="translate(-191.668 -80.325)" fill="#2d2f37" fill-rule="evenodd"/>
    <path id="Path_78453" data-name="Path 78453" d="M291.248,146.275q1.693-.039,3.408.059.11-1.8.1-3.6-1.867.042-3.712.234Q291.2,144.615,291.248,146.275Zm0,0" transform="translate(-193.946 -95.104)" fill="#2d2f37" fill-rule="evenodd"/>
    <path id="Path_78454" data-name="Path 78454" d="M291.82,164.732c.1-.994.157-1.993.187-2.99q1.581.178,3.143.448-.187,1.6-.474,3.2Q293.261,165.017,291.82,164.732Zm0,0" transform="translate(-194.467 -107.773)" fill="#2d2f37" fill-rule="evenodd"/>
    <path id="Path_78455" data-name="Path 78455" d="M277.976,163.409c-.053-.885-.142-1.771-.261-2.659q1.364.032,2.717.129.06,1.423.021,2.844Q279.222,163.531,277.976,163.409Zm0,0" transform="translate(-185.068 -107.111)" fill="#2d2f37" fill-rule="evenodd"/>
    <path id="Path_78456" data-name="Path 78456" d="M265.482,163.951q-.291-1.035-.646-2.057c.759-.133,1.52-.247,2.287-.335q.287,1.122.505,2.258Q266.553,163.851,265.482,163.951Zm0,0" transform="translate(-176.486 -107.65)" fill="#2d2f37" fill-rule="evenodd"/>
    <path id="Path_78457" data-name="Path 78457" d="M269.759,130.715q1.578-.5,3.187-.889-.413-1.8-.98-3.58-1.7.576-3.364,1.271Q269.249,129.1,269.759,130.715Zm0,0" transform="translate(-178.995 -84.12)" fill="#2d2f37" fill-rule="evenodd"/>
    <path id="Path_78458" data-name="Path 78458" d="M187.792,270.383q.254,1.4.61,2.793-1.505.363-3.042.622-.26-1.534-.407-3.079Q186.386,270.6,187.792,270.383Zm0,0" transform="translate(-123.255 -180.166)" fill="#2d2f37" fill-rule="evenodd"/>
    <path id="Path_78459" data-name="Path 78459" d="M186.877,256.533q.083,1.328.261,2.659-1.365-.032-2.717-.129-.061-1.423-.021-2.844Q185.634,256.409,186.877,256.533Zm0,0" transform="translate(-122.877 -170.727)" fill="#2d2f37" fill-rule="evenodd"/>
    <path id="Path_78460" data-name="Path 78460" d="M171.737,290.148q.311,1.969.793,3.912-2.125.585-4.278.983-.326-2.166-.47-4.365Q169.771,290.5,171.737,290.148Zm0,0" transform="translate(-111.813 -193.336)" fill="#2d2f37" fill-rule="evenodd"/>
    <path id="Path_78461" data-name="Path 78461" d="M190.939,285.8q.516,1.613,1.169,3.2-1.67.692-3.374,1.267-.571-1.777-.992-3.584Q189.357,286.3,190.939,285.8Zm0,0" transform="translate(-125.114 -190.439)" fill="#2d2f37" fill-rule="evenodd"/>
    <path id="Path_78462" data-name="Path 78462" d="M222.894,273.266c-.7.419-1.417.817-2.136,1.2q.772,1.126,1.621,2.205,1.122-.706,2.218-1.47Q223.708,274.256,222.894,273.266Zm0,0" transform="translate(-147.114 -182.087)" fill="#2d2f37" fill-rule="evenodd"/>
    <path id="Path_78463" data-name="Path 78463" d="M216.27,263.922q-.989.417-2.012.773.551,1.015,1.158,2,1.058-.474,2.085-1.006C217.072,265.109,216.664,264.522,216.27,263.922Zm0,0" transform="translate(-142.783 -175.86)" fill="#2d2f37" fill-rule="evenodd"/>
    <path id="Path_78464" data-name="Path 78464" d="M202.354,268.336q-1.281.356-2.6.622.473,1.279,1.009,2.526,1.365-.409,2.7-.91Q202.879,269.471,202.354,268.336Zm0,0" transform="translate(-133.121 -178.801)" fill="#2d2f37" fill-rule="evenodd"/>
    <path id="Path_78465" data-name="Path 78465" d="M199.417,257.25c-.716.042-1.436.063-2.154.061q.18,1.14.43,2.27,1.153-.1,2.3-.259C199.777,258.637,199.587,257.946,199.417,257.25Zm0,0" transform="translate(-131.458 -171.414)" fill="#2d2f37" fill-rule="evenodd"/>
    <path id="Path_78466" data-name="Path 78466" d="M170.965,271.665c.026,1.1.1,2.2.2,3.3q-1.838.2-3.7.244-.012-1.793.1-3.595Q169.274,271.711,170.965,271.665Zm0,0" transform="translate(-111.6 -180.988)" fill="#2d2f37" fill-rule="evenodd"/>
    <path id="Path_78467" data-name="Path 78467" d="M302.313,184.631q1.263.651,2.492,1.4.788-1.335,1.484-2.728-1.392-.7-2.825-1.289Q302.932,183.351,302.313,184.631Zm0,0" transform="translate(-201.458 -121.282)" fill="#2d2f37" fill-rule="evenodd"/>
    <path id="Path_78468" data-name="Path 78468" d="M277.234,176.209q1.046.248,2.082.562c.1-.763.184-1.529.241-2.3-.756-.162-1.516-.3-2.278-.416Q277.291,175.138,277.234,176.209Zm0,0" transform="translate(-184.747 -115.98)" fill="#2d2f37" fill-rule="evenodd"/>
    <path id="Path_78469" data-name="Path 78469" d="M290.137,179.535q1.244.468,2.466,1.027.37-1.312.671-2.635-1.343-.473-2.714-.852Q290.383,178.308,290.137,179.535Zm0,0" transform="translate(-193.345 -117.989)" fill="#2d2f37" fill-rule="evenodd"/>
    <path id="Path_78470" data-name="Path 78470" d="M325.258,175.174q1.79.874,3.507,1.9,1.181-1.861,2.191-3.8-1.975-.944-4.035-1.726Q326.164,173.4,325.258,175.174Zm0,0" transform="translate(-216.748 -114.306)" fill="#2d2f37" fill-rule="evenodd"/>
    <path id="Path_78471" data-name="Path 78471" d="M315.926,192.47q1.39.965,2.719,2.055,1.149-1.394,2.2-2.856-1.531-1.067-3.136-2Q316.863,191.1,315.926,192.47Zm0,0" transform="translate(-210.529 -126.384)" fill="#2d2f37" fill-rule="evenodd"/>
    <path id="Path_78472" data-name="Path 78472" d="M308.164,168.911q1.57.524,3.1,1.16.727-1.7,1.316-3.471-1.711-.534-3.467-.955Q308.7,167.309,308.164,168.911Zm0,0" transform="translate(-205.357 -110.373)" fill="#2d2f37" fill-rule="evenodd"/>
    <path id="Path_78473" data-name="Path 78473" d="M159.688,232q-.618,1.279-1.151,2.616-1.433-.593-2.826-1.289.7-1.394,1.486-2.726Q158.425,231.345,159.688,232Zm0,0" transform="translate(-103.77 -153.655)" fill="#2d2f37" fill-rule="evenodd"/>
    <path id="Path_78474" data-name="Path 78474" d="M176.279,208.876q-.688.829-1.328,1.7-.807-.823-1.572-1.692.762-.874,1.573-1.7Q175.589,208.054,176.279,208.876Zm0,0" transform="translate(-115.543 -138.053)" fill="#2d2f37" fill-rule="evenodd"/>
    <path id="Path_78475" data-name="Path 78475" d="M167.179,219.736q-.716,1.122-1.355,2.3-1.085-.827-2.121-1.7.792-1.185,1.659-2.311Q166.245,218.9,167.179,219.736Zm0,0" transform="translate(-109.095 -145.275)" fill="#2d2f37" fill-rule="evenodd"/>
    <path id="Path_78476" data-name="Path 78476" d="M133.433,238.823q-.907,1.775-1.664,3.627-2.058-.778-4.035-1.726,1.013-1.941,2.191-3.8Q131.641,237.947,133.433,238.823Zm0,0" transform="translate(-85.127 -157.869)" fill="#2d2f37" fill-rule="evenodd"/>
    <path id="Path_78477" data-name="Path 78477" d="M152.856,247.195q-.532,1.607-.941,3.275-1.758-.422-3.474-.963.585-1.773,1.309-3.48Q151.283,246.665,152.856,247.195Zm0,0" transform="translate(-98.926 -163.936)" fill="#2d2f37" fill-rule="evenodd"/>
    <path id="Path_78478" data-name="Path 78478" d="M188.483,244.253q-1.048-.248-2.083-.562c-.1.763-.184,1.529-.24,2.3.755.162,1.515.3,2.277.416C188.429,245.684,188.446,244.967,188.483,244.253Zm0,0" transform="translate(-124.06 -162.379)" fill="#2d2f37" fill-rule="evenodd"/>
    <path id="Path_78479" data-name="Path 78479" d="M171.419,253.357q-1.468-.3-2.913-.7-.293,1.566-.49,3.138,1.587.29,3.2.482Q171.272,254.816,171.419,253.357Zm0,0" transform="translate(-111.969 -168.356)" fill="#2d2f37" fill-rule="evenodd"/>
    <path id="Path_78480" data-name="Path 78480" d="M173.951,239.379q-1.247-.467-2.467-1.027-.369,1.312-.671,2.635,1.343.473,2.713.852Q173.7,240.6,173.951,239.379Zm0,0" transform="translate(-113.833 -158.822)" fill="#2d2f37" fill-rule="evenodd"/>
    <path id="Path_78481" data-name="Path 78481" d="M178.13,227.783q-.9-.58-1.778-1.22-.524,1.03-.989,2.088.989.6,2.011,1.146C177.6,229.116,177.858,228.446,178.13,227.783Zm0,0" transform="translate(-116.865 -150.966)" fill="#2d2f37" fill-rule="evenodd"/>
    <path id="Path_78482" data-name="Path 78482" d="M144.468,222.694q-.94,1.363-1.782,2.788-1.6-.923-3.136-1.985,1.046-1.455,2.2-2.845Q143.076,221.735,144.468,222.694Zm0,0" transform="translate(-93.002 -147.027)" fill="#2d2f37" fill-rule="evenodd"/>
    <path id="Path_78483" data-name="Path 78483" d="M303,231.037q.637,1.271,1.186,2.6,1.425-.609,2.809-1.326-.714-1.383-1.522-2.706Q304.26,230.37,303,231.037Zm0,0" transform="translate(-201.919 -152.993)" fill="#2d2f37" fill-rule="evenodd"/>
    <path id="Path_78484" data-name="Path 78484" d="M295.074,197.747q.918.811,1.792,1.67.837-1.081,1.6-2.217-1.014-.854-2.076-1.664Q295.769,196.669,295.074,197.747Zm0,0" transform="translate(-196.635 -130.29)" fill="#2d2f37" fill-rule="evenodd"/>
    <path id="Path_78485" data-name="Path 78485" d="M288.27,208.14q.7.817,1.35,1.681.8-.833,1.547-1.713-.77-.862-1.592-1.679Q288.947,207.308,288.27,208.14Zm0,0" transform="translate(-192.101 -137.55)" fill="#2d2f37" fill-rule="evenodd"/>
    <path id="Path_78486" data-name="Path 78486" d="M305.836,208.3q1.007,1.111,1.942,2.282,1.16-1.093,2.246-2.245-1.113-1.169-2.3-2.278Q306.817,207.206,305.836,208.3Zm0,0" transform="translate(-203.806 -137.3)" fill="#2d2f37" fill-rule="evenodd"/>
    <path id="Path_78487" data-name="Path 78487" d="M296.363,218.884q.729,1.112,1.386,2.283,1.073-.841,2.1-1.732c-.537-.783-1.1-1.546-1.689-2.287Q297.285,218.038,296.363,218.884Zm0,0" transform="translate(-197.494 -144.692)" fill="#2d2f37" fill-rule="evenodd"/>
    <path id="Path_78488" data-name="Path 78488" d="M325.922,237.535q.93,1.763,1.711,3.6,2.049-.807,4.012-1.779-1.04-1.927-2.24-3.774Q327.7,236.634,325.922,237.535Zm0,0" transform="translate(-217.19 -156.979)" fill="#2d2f37" fill-rule="evenodd"/>
    <path id="Path_78489" data-name="Path 78489" d="M286.223,192.006q.929.536,1.834,1.131c.315-.7.613-1.413.885-2.132-.676-.37-1.366-.718-2.063-1.048C286.682,190.649,286.462,191.331,286.223,192.006Zm0,0" transform="translate(-190.737 -126.574)" fill="#2d2f37" fill-rule="evenodd"/>
    <path id="Path_78490" data-name="Path 78490" d="M309.156,246.138q.554,1.6.984,3.263,1.754-.446,3.462-1.009-.61-1.766-1.357-3.463Q310.722,245.589,309.156,246.138Zm0,0" transform="translate(-206.018 -163.205)" fill="#2d2f37" fill-rule="evenodd"/>
    <path id="Path_78491" data-name="Path 78491" d="M316.238,221.556q.958,1.349,1.819,2.763,1.59-.944,3.11-2.025-1.067-1.441-2.236-2.816Q317.617,220.578,316.238,221.556Zm0,0" transform="translate(-210.737 -146.244)" fill="#2d2f37" fill-rule="evenodd"/>
    <path id="Path_78492" data-name="Path 78492" d="M159.766,185.552q-1.255.669-2.474,1.434-.805-1.323-1.52-2.708,1.382-.714,2.808-1.324Q159.13,184.28,159.766,185.552Zm0,0" transform="translate(-103.811 -121.907)" fill="#2d2f37" fill-rule="evenodd"/>
    <path id="Path_78493" data-name="Path 78493" d="M133.27,176.41q-1.779.9-3.482,1.947-1.2-1.843-2.24-3.773,1.963-.97,4.013-1.779Q132.34,174.644,133.27,176.41Zm0,0" transform="translate(-85.003 -115.144)" fill="#2d2f37" fill-rule="evenodd"/>
    <path id="Path_78494" data-name="Path 78494" d="M144.394,193.584q-1.376.985-2.691,2.091-1.169-1.378-2.238-2.826,1.517-1.089,3.111-2.04Q143.436,192.229,144.394,193.584Zm0,0" transform="translate(-92.944 -127.141)" fill="#2d2f37" fill-rule="evenodd"/>
    <path id="Path_78495" data-name="Path 78495" d="M156.154,208.547q-1.009-1.109-1.942-2.281-1.16,1.093-2.247,2.244,1.113,1.171,2.3,2.279C154.87,210.022,155.5,209.277,156.154,208.547Zm0,0" transform="translate(-101.274 -137.441)" fill="#2d2f37" fill-rule="evenodd"/>
    <path id="Path_78496" data-name="Path 78496" d="M167.037,198.965q-.731-1.112-1.385-2.285-1.074.842-2.1,1.732.805,1.175,1.689,2.288Q166.114,199.809,167.037,198.965Zm0,0" transform="translate(-108.997 -131.053)" fill="#2d2f37" fill-rule="evenodd"/>
    <path id="Path_78497" data-name="Path 78497" d="M152.818,169.9q-1.562.543-3.085,1.2-.747-1.691-1.362-3.453,1.707-.557,3.455-1Q152.26,168.306,152.818,169.9Zm0,0" transform="translate(-98.879 -111.042)" fill="#2d2f37" fill-rule="evenodd"/>
    <path id="Path_78498" data-name="Path 78498" d="M276.5,269.766q-.236,1.4-.574,2.8,1.511.346,3.049.582.24-1.536.365-3.082C278.391,270,277.442,269.9,276.5,269.766Zm0,0" transform="translate(-183.878 -179.754)" fill="#2d2f37" fill-rule="evenodd"/>
    <path id="Path_78499" data-name="Path 78499" d="M289.945,237.439c.177.8.33,1.6.464,2.4.873-.252,1.743-.533,2.6-.844q-.316-1.288-.7-2.567Q291.142,236.977,289.945,237.439Zm0,0" transform="translate(-193.217 -157.541)" fill="#2d2f37" fill-rule="evenodd"/>
    <path id="Path_78500" data-name="Path 78500" d="M278.914,241.8q.082,1.074.1,2.155,1.135-.2,2.261-.47c-.077-.768-.178-1.534-.3-2.3Q279.952,241.531,278.914,241.8Zm0,0" transform="translate(-185.866 -160.713)" fill="#2d2f37" fill-rule="evenodd"/>
    <path id="Path_78501" data-name="Path 78501" d="M292.383,252.97c.107.993.184,1.99.226,2.987q1.58-.2,3.137-.49-.211-1.6-.516-3.2C294.29,252.535,293.341,252.765,292.383,252.97Zm0,0" transform="translate(-194.841 -168.096)" fill="#2d2f37" fill-rule="evenodd"/>
    <path id="Path_78502" data-name="Path 78502" d="M278.637,255.83q-.069,1.329-.227,2.662,1.363-.049,2.715-.164.041-1.423-.017-2.844Q279.878,255.691,278.637,255.83Zm0,0" transform="translate(-185.531 -170.237)" fill="#2d2f37" fill-rule="evenodd"/>
    <path id="Path_78503" data-name="Path 78503" d="M290.247,289.352q-.287,1.972-.743,3.92,2.131.557,4.29.927.3-2.168.413-4.369Q292.215,289.674,290.247,289.352Zm0,0" transform="translate(-192.923 -192.806)" fill="#2d2f37" fill-rule="evenodd"/>
    <path id="Path_78504" data-name="Path 78504" d="M286.367,226.8q.436.983.816,2c.668-.382,1.327-.78,1.972-1.2q-.495-1.046-1.051-2.063C287.536,225.974,286.958,226.4,286.367,226.8Zm0,0" transform="translate(-190.833 -150.278)" fill="#2d2f37" fill-rule="evenodd"/>
    <path id="Path_78505" data-name="Path 78505" d="M271.732,285.23q-.494,1.619-1.127,3.217c1.117.447,2.25.855,3.39,1.224q.549-1.784.946-3.6Q273.323,285.709,271.732,285.23Zm0,0" transform="translate(-180.33 -190.059)" fill="#2d2f37" fill-rule="evenodd"/>
    <path id="Path_78506" data-name="Path 78506" d="M240.64,273.078c.708.411,1.426.8,2.152,1.17q-.758,1.136-1.594,2.225c-.753-.46-1.5-.941-2.236-1.441Q239.839,274.08,240.64,273.078Zm0,0" transform="translate(-159.244 -181.961)" fill="#2d2f37" fill-rule="evenodd"/>
    <path id="Path_78507" data-name="Path 78507" d="M248.325,263.648q1,.4,2.023.747-.538,1.021-1.133,2.012-1.063-.46-2.1-.98Q247.753,264.556,248.325,263.648Zm0,0" transform="translate(-164.679 -175.678)" fill="#2d2f37" fill-rule="evenodd"/>
    <path id="Path_78508" data-name="Path 78508" d="M254.418,279.918q1.372.6,2.78,1.119-.668,1.444-1.415,2.842-1.464-.684-2.892-1.46Q253.694,281.2,254.418,279.918Zm0,0" transform="translate(-168.526 -186.519)" fill="#2d2f37" fill-rule="evenodd"/>
    <path id="Path_78509" data-name="Path 78509" d="M261.391,267.895q1.288.34,2.608.589-.458,1.285-.977,2.539-1.369-.392-2.706-.876Q260.885,269.039,261.391,267.895Zm0,0" transform="translate(-173.474 -178.508)" fill="#2d2f37" fill-rule="evenodd"/>
    <path id="Path_78510" data-name="Path 78510" d="M231.965,266.609q.805.714,1.656,1.382-.851.783-1.743,1.517-.848-.79-1.649-1.626Q231.12,267.271,231.965,266.609Zm0,0" transform="translate(-153.426 -177.651)" fill="#2d2f37" fill-rule="evenodd"/>
    <path id="Path_78511" data-name="Path 78511" d="M266.128,256.762q1.073.05,2.156.034-.168,1.144-.4,2.276-1.155-.08-2.3-.229Q265.887,257.809,266.128,256.762Zm0,0" transform="translate(-176.98 -171.089)" fill="#2d2f37" fill-rule="evenodd"/>
    <path id="Path_78512" data-name="Path 78512" d="M292.852,270.761q-.022,1.654-.16,3.3,1.842.176,3.707.2-.012-1.792-.147-3.592C295.112,270.745,293.975,270.775,292.852,270.761Zm0,0" transform="translate(-195.047 -180.355)" fill="#2d2f37" fill-rule="evenodd"/>
    <path id="Path_78513" data-name="Path 78513" d="M188.124,148.431q-1.408-.2-2.843-.3.129-1.544.368-3.085,1.536.238,3.049.584Q188.36,147.029,188.124,148.431Zm0,0" transform="translate(-123.474 -96.648)" fill="#2d2f37" fill-rule="evenodd"/>
    <path id="Path_78514" data-name="Path 78514" d="M222.117,145.86q-1.064-.616-2.152-1.17.758-1.136,1.593-2.225,1.13.69,2.236,1.441Q222.918,144.859,222.117,145.86Zm0,0" transform="translate(-146.586 -94.927)" fill="#2d2f37" fill-rule="evenodd"/>
    <path id="Path_78515" data-name="Path 78515" d="M215.627,156.56q-1-.4-2.022-.745.538-1.023,1.131-2.014,1.064.459,2.1.98Q216.2,155.653,215.627,156.56Zm0,0" transform="translate(-142.348 -102.481)" fill="#2d2f37" fill-rule="evenodd"/>
    <path id="Path_78516" data-name="Path 78516" d="M207.384,137.893q-1.371-.6-2.779-1.117.667-1.446,1.416-2.842,1.462.682,2.891,1.459C208.376,136.21,207.869,137.044,207.384,137.893Zm0,0" transform="translate(-136.35 -89.243)" fill="#2d2f37" fill-rule="evenodd"/>
    <path id="Path_78517" data-name="Path 78517" d="M201.658,151.577q-1.288-.34-2.606-.589.457-1.285.977-2.539,1.369.391,2.706.876C202.355,150.064,201.994,150.816,201.658,151.577Zm0,0" transform="translate(-132.65 -98.915)" fill="#2d2f37" fill-rule="evenodd"/>
    <path id="Path_78518" data-name="Path 78518" d="M171.481,126.163c-1.311-.215-2.634-.373-3.961-.478q.113-2.2.413-4.369c1.437.249,2.87.555,4.289.927Q171.771,124.19,171.481,126.163Zm0,0" transform="translate(-111.639 -80.835)" fill="#2d2f37" fill-rule="evenodd"/>
    <path id="Path_78519" data-name="Path 78519" d="M231.669,153.323q-.806-.713-1.657-1.381.846-.782,1.741-1.516.849.788,1.649,1.625Q232.513,152.661,231.669,153.323Zm0,0" transform="translate(-153.281 -100.232)" fill="#2d2f37" fill-rule="evenodd"/>
    <path id="Path_78520" data-name="Path 78520" d="M170.865,147.015q-1.693-.017-3.407.1-.133-1.8-.142-3.6c1.246.012,2.484.071,3.715.186Q170.888,145.356,170.865,147.015Zm0,0" transform="translate(-111.503 -95.628)" fill="#2d2f37" fill-rule="evenodd"/>
    <path id="Path_78521" data-name="Path 78521" d="M174.337,181.468c-.177-.8-.33-1.6-.464-2.4q-1.312.377-2.6.844.317,1.288.7,2.568Q173.14,181.927,174.337,181.468Zm0,0" transform="translate(-114.138 -119.314)" fill="#2d2f37" fill-rule="evenodd"/>
    <path id="Path_78522" data-name="Path 78522" d="M186.776,178.388q-.082-1.073-.1-2.154-1.138.2-2.263.471.117,1.153.3,2.3C185.4,178.774,186.082,178.571,186.776,178.388Zm0,0" transform="translate(-122.896 -117.429)" fill="#2d2f37" fill-rule="evenodd"/>
    <path id="Path_78523" data-name="Path 78523" d="M171.3,165.385q-.161-1.49-.224-2.987-1.581.2-3.139.49.209,1.6.516,3.2Q169.869,165.69,171.3,165.385Zm0,0" transform="translate(-111.919 -108.21)" fill="#2d2f37" fill-rule="evenodd"/>
    <path id="Path_78524" data-name="Path 78524" d="M186.311,163.881q.065-1.329.227-2.662-1.363.049-2.715.164-.043,1.423.016,2.844Q185.068,164.022,186.311,163.881Zm0,0" transform="translate(-122.49 -107.424)" fill="#2d2f37" fill-rule="evenodd"/>
    <path id="Path_78525" data-name="Path 78525" d="M178.472,192.4q-.438-.983-.816-2-1,.573-1.972,1.2.494,1.046,1.049,2.063C177.3,193.224,177.881,192.8,178.472,192.4Zm0,0" transform="translate(-117.079 -126.87)" fill="#2d2f37" fill-rule="evenodd"/>
    <path id="Path_78526" data-name="Path 78526" d="M198.75,164.324q.28-1.041.62-2.066c-.76-.122-1.522-.227-2.29-.3-.183.751-.34,1.507-.478,2.264Q197.679,164.236,198.75,164.324Zm0,0" transform="translate(-131.018 -107.913)" fill="#2d2f37" fill-rule="evenodd"/>
    <path id="Path_78527" data-name="Path 78527" d="M190.984,131.173q-1.586-.481-3.2-.847.391-1.808.935-3.592,1.7.554,3.381,1.226Q191.473,129.556,190.984,131.173Zm0,0" transform="translate(-125.142 -84.445)" fill="#2d2f37" fill-rule="evenodd"/>
    <g id="Group_15340" data-name="Group 15340" transform="translate(0.989 131.796)" clip-path="url(#clip-path)">
      <path id="Path_78528" data-name="Path 78528" d="M3.395,406.656V395.6H4.859v5.482l5.49-5.482h1.98L7.693,400.08l4.841,6.577H10.6l-3.933-5.6-1.809,1.765v3.83Zm199.63,0,4.247-11.055h1.573l4.526,11.055H211.7l-1.289-3.348h-4.623l-1.212,3.348Zm3.189-4.54h3.75l-1.155-3.06q-.526-1.394-.785-2.293a13.744,13.744,0,0,1-.6,2.113ZM200.2,395.6h1.462v11.055H200.2Zm-10.61,11.055V395.6h4.149a5.166,5.166,0,0,1,2.031.335,2.616,2.616,0,0,1,1.2,1.035,2.723,2.723,0,0,1,.434,1.46,2.479,2.479,0,0,1-.387,1.332,2.73,2.73,0,0,1-1.159,1.011,2.893,2.893,0,0,1,1.541,1,2.683,2.683,0,0,1,.541,1.675,3.23,3.23,0,0,1-.33,1.444,2.8,2.8,0,0,1-.81,1.029,3.4,3.4,0,0,1-1.209.546,7.371,7.371,0,0,1-1.784.185Zm1.465-6.408h2.389a5.392,5.392,0,0,0,1.4-.129,1.542,1.542,0,0,0,.838-.551,1.591,1.591,0,0,0,.282-.965,1.786,1.786,0,0,0-.261-.968,1.342,1.342,0,0,0-.755-.574,6.3,6.3,0,0,0-1.683-.155h-2.208Zm0,5.1h2.75a6.578,6.578,0,0,0,1-.052,2.391,2.391,0,0,0,.845-.3,1.609,1.609,0,0,0,.558-.612,1.941,1.941,0,0,0,.219-.932,1.848,1.848,0,0,0-.317-1.076,1.678,1.678,0,0,0-.88-.641,5.531,5.531,0,0,0-1.616-.183h-2.556Zm-12.919,1.3,4.248-11.055h1.574l4.525,11.055h-1.668l-1.289-3.348H180.9l-1.212,3.348Zm3.189-4.54h3.75l-1.155-3.06q-.526-1.394-.783-2.293a14,14,0,0,1-.6,2.113Zm-13.1,4.54V395.6h4.9a6.521,6.521,0,0,1,2.247.3,2.47,2.47,0,0,1,1.23,1.05,3.153,3.153,0,0,1,.459,1.668,2.767,2.767,0,0,1-.762,1.981,3.858,3.858,0,0,1-2.353,1.027,3.663,3.663,0,0,1,.883.551,7.732,7.732,0,0,1,1.215,1.469l1.923,3.009h-1.84l-1.462-2.3c-.427-.661-.779-1.17-1.057-1.521a3.265,3.265,0,0,0-.741-.738,2.222,2.222,0,0,0-.667-.3,4.746,4.746,0,0,0-.816-.051h-1.7v4.908Zm1.462-6.175h3.145a4.677,4.677,0,0,0,1.568-.209,1.668,1.668,0,0,0,.859-.663,1.8,1.8,0,0,0,.295-.991,1.646,1.646,0,0,0-.57-1.29,2.659,2.659,0,0,0-1.8-.505h-3.5Zm-13,6.175,4.248-11.055H162.5l4.524,11.055h-1.668l-1.288-3.348h-4.623l-1.212,3.348Zm3.189-4.54h3.749l-1.155-3.06q-.526-1.394-.783-2.293a14.1,14.1,0,0,1-.6,2.113Zm-9.453-6.514h1.462v11.055h-1.462Zm-11.4,11.055V395.6h3.807a9.205,9.205,0,0,1,1.97.161,3.722,3.722,0,0,1,1.62.789,4.5,4.5,0,0,1,1.309,1.889,7.413,7.413,0,0,1,.435,2.629,7.651,7.651,0,0,1-.3,2.231,5.428,5.428,0,0,1-.755,1.611,3.948,3.948,0,0,1-1.006,1,4.068,4.068,0,0,1-1.318.557,7.6,7.6,0,0,1-1.776.187Zm1.462-1.3h2.36a5.747,5.747,0,0,0,1.717-.2,2.472,2.472,0,0,0,.992-.574,3.454,3.454,0,0,0,.809-1.4,6.813,6.813,0,0,0,.292-2.131,5.139,5.139,0,0,0-.57-2.664,2.858,2.858,0,0,0-1.384-1.249,5.7,5.7,0,0,0-1.892-.227h-2.324Zm-5.36-9.75h1.463v6.389a7.524,7.524,0,0,1-.378,2.646,3.225,3.225,0,0,1-1.361,1.593,4.8,4.8,0,0,1-2.583.615,5.275,5.275,0,0,1-2.539-.536,3.031,3.031,0,0,1-1.412-1.549,7.354,7.354,0,0,1-.421-2.768V395.6h1.461v6.381a6.165,6.165,0,0,0,.269,2.121,2.042,2.042,0,0,0,.918,1.053,3.2,3.2,0,0,0,1.6.37,3.046,3.046,0,0,0,2.3-.734,4.22,4.22,0,0,0,.686-2.81Zm-18.768,11.055L120.6,395.6h1.576l4.524,11.055h-1.667l-1.292-3.348h-4.62l-1.213,3.348Zm3.188-4.54h3.751l-1.156-3.06q-.526-1.394-.782-2.293a14.4,14.4,0,0,1-.6,2.113Zm-12.77.989,1.379-.121a2.981,2.981,0,0,0,.456,1.36,2.483,2.483,0,0,0,1.112.86,4.19,4.19,0,0,0,1.7.328,4.068,4.068,0,0,0,1.478-.248,2.067,2.067,0,0,0,.954-.681,1.59,1.59,0,0,0,.314-.948,1.429,1.429,0,0,0-.3-.908,2.221,2.221,0,0,0-.993-.651,19.364,19.364,0,0,0-1.97-.541,10.122,10.122,0,0,1-2.133-.689,3,3,0,0,1-1.181-1.03,2.527,2.527,0,0,1-.387-1.378,2.809,2.809,0,0,1,.474-1.563,2.951,2.951,0,0,1,1.387-1.106,5.318,5.318,0,0,1,2.028-.375,5.539,5.539,0,0,1,2.17.4,3.137,3.137,0,0,1,1.444,1.164,3.372,3.372,0,0,1,.544,1.742l-1.4.106a2.267,2.267,0,0,0-.766-1.584,2.977,2.977,0,0,0-1.925-.535,3.093,3.093,0,0,0-1.935.487,1.459,1.459,0,0,0-.607,1.17,1.255,1.255,0,0,0,.43.981,5.815,5.815,0,0,0,2.205.788,14.7,14.7,0,0,1,2.448.705,3.378,3.378,0,0,1,1.426,1.127,2.748,2.748,0,0,1,.456,1.573,3,3,0,0,1-.5,1.662,3.341,3.341,0,0,1-1.45,1.215,5.071,5.071,0,0,1-2.128.433,6.31,6.31,0,0,1-2.515-.438,3.519,3.519,0,0,1-1.593-1.315A3.708,3.708,0,0,1,106.767,403.1Zm-13.152,3.552V395.6h7.457v1.3H95.079v3.424h5.186v1.3H95.079v5.022Zm-12.533-5.384a6.01,6.01,0,0,1,1.477-4.309,5.034,5.034,0,0,1,3.819-1.557,5.3,5.3,0,0,1,2.759.731,4.8,4.8,0,0,1,1.873,2.041,6.608,6.608,0,0,1,.644,2.965,6.519,6.519,0,0,1-.676,3.008,4.65,4.65,0,0,1-1.924,2.011,5.5,5.5,0,0,1-2.684.682,5.205,5.205,0,0,1-2.79-.755,4.839,4.839,0,0,1-1.864-2.058A6.232,6.232,0,0,1,81.083,401.272Zm1.509.022a4.426,4.426,0,0,0,1.073,3.149,3.749,3.749,0,0,0,5.414-.01,4.7,4.7,0,0,0,1.07-3.3,5.67,5.67,0,0,0-.459-2.355,3.534,3.534,0,0,0-1.333-1.563,3.638,3.638,0,0,0-1.971-.552,3.732,3.732,0,0,0-2.675,1.068A4.763,4.763,0,0,0,82.592,401.294Zm-18.264,5.362V395.6h2.2l2.616,7.826c.243.729.42,1.275.526,1.637.128-.4.323-.993.592-1.772l2.645-7.691h1.968v11.055h-1.41V397.4l-3.211,9.252H68.934l-3.2-9.41v9.41Zm-12.411-5.384a6,6,0,0,1,1.478-4.309,5.026,5.026,0,0,1,3.816-1.557,5.3,5.3,0,0,1,2.759.731,4.8,4.8,0,0,1,1.874,2.041,6.608,6.608,0,0,1,.644,2.965,6.487,6.487,0,0,1-.678,3.008,4.64,4.64,0,0,1-1.922,2.011,5.5,5.5,0,0,1-2.684.682,5.205,5.205,0,0,1-2.79-.755,4.839,4.839,0,0,1-1.864-2.058A6.213,6.213,0,0,1,51.917,401.272Zm1.509.022a4.426,4.426,0,0,0,1.073,3.149,3.75,3.75,0,0,0,5.414-.01,4.7,4.7,0,0,0,1.069-3.3,5.67,5.67,0,0,0-.457-2.355,3.528,3.528,0,0,0-1.335-1.563,3.632,3.632,0,0,0-1.971-.552,3.731,3.731,0,0,0-2.673,1.068A4.763,4.763,0,0,0,53.426,401.294ZM41.21,406.656V395.6h3.807a9.207,9.207,0,0,1,1.969.161,3.74,3.74,0,0,1,1.621.789,4.511,4.511,0,0,1,1.307,1.889,7.385,7.385,0,0,1,.435,2.629,7.65,7.65,0,0,1-.3,2.231,5.4,5.4,0,0,1-.755,1.611,3.958,3.958,0,0,1-1.006,1,4.091,4.091,0,0,1-1.318.557,7.6,7.6,0,0,1-1.777.187Zm1.462-1.3h2.36a5.752,5.752,0,0,0,1.717-.2,2.461,2.461,0,0,0,.991-.574,3.456,3.456,0,0,0,.81-1.4,6.847,6.847,0,0,0,.291-2.131,5.154,5.154,0,0,0-.568-2.664,2.862,2.862,0,0,0-1.384-1.249A5.71,5.71,0,0,0,45,396.906H42.673Zm-8.3-3.033v-1.294l4.682-.007v4.1a8.3,8.3,0,0,1-2.224,1.294,6.616,6.616,0,0,1-2.352.433,6.27,6.27,0,0,1-2.96-.7,4.61,4.61,0,0,1-2.01-2.015,6.333,6.333,0,0,1-.68-2.951,6.8,6.8,0,0,1,.678-3.011,4.484,4.484,0,0,1,1.941-2.08,6.113,6.113,0,0,1,2.918-.676,5.774,5.774,0,0,1,2.167.388,3.561,3.561,0,0,1,1.518,1.082,4.8,4.8,0,0,1,.839,1.809l-1.32.362a4.139,4.139,0,0,0-.618-1.328,2.535,2.535,0,0,0-1.058-.771,3.864,3.864,0,0,0-1.521-.291,4.475,4.475,0,0,0-1.735.307,3.246,3.246,0,0,0-1.182.8,3.874,3.874,0,0,0-.7,1.094,5.772,5.772,0,0,0-.422,2.223,5.4,5.4,0,0,0,.508,2.473,3.255,3.255,0,0,0,1.483,1.478,4.58,4.58,0,0,0,2.063.483,4.9,4.9,0,0,0,1.857-.367,4.707,4.707,0,0,0,1.371-.781v-2.059Zm-16.341,4.337V395.6h1.5l5.806,8.679V395.6h1.4v11.055h-1.5l-5.806-8.687v8.687ZM14.006,395.6h1.461v11.055H14.006Zm0,0" transform="translate(-3.263 -395.271)" fill="#2d2f37" fill-rule="evenodd"/>
    </g>
    <path id="Path_78530" data-name="Path 78530" d="M205.511,167.469a4.818,4.818,0,0,1,.714,2.407s1.493-2.445,4.591-.407c0,0-2.635-.353-3.261,1,0,0,4.05-1.06,4.917,2.69,0,0-1.874-2.092-3.587-1.711,0,0,3.888,1.358,2.8,5.353,0,0-.326-3.587-2.934-4.022,0,0,2.418,1.985,1.493,5.98,0,0,.055-2.962-1.847-4.375a6.308,6.308,0,0,1-.789,5.842s1.06-3.559-.652-4.864c0,0-.708-.434-.68.869,0,0-.2,7.468.167,11.111,0,0,7.478-6.328,13.876-2.12,0,0-6.336-3.093-13.632,3.718l4.871,4.277a1.222,1.222,0,0,1,2.258.645c0,1.644-2.308,1.527-3.153.541l-5.117-4.7-.036-.111-.038.111-5.116,4.7c-.843.987-3.153,1.1-3.153-.541a1.222,1.222,0,0,1,2.259-.645l4.871-4.277c-7.3-6.811-13.633-3.718-13.633-3.718,6.4-4.207,13.878,2.12,13.878,2.12.37-3.643.167-11.111.167-11.111.027-1.3-.679-.869-.679-.869-1.713,1.3-.653,4.864-.653,4.864a6.31,6.31,0,0,1-.787-5.842c-1.9,1.413-1.848,4.375-1.848,4.375-.924-3.994,1.5-5.98,1.5-5.98-2.609.435-2.935,4.022-2.935,4.022-1.088-3.995,2.8-5.353,2.8-5.353-1.711-.38-3.587,1.711-3.587,1.711.868-3.75,4.919-2.69,4.919-2.69-.624-1.358-3.261-1-3.261-1,3.1-2.039,4.593.407,4.593.407A4.79,4.79,0,0,1,205.511,167.469Zm0,0" transform="translate(-127.087 -111.589)" fill="#2d2f37" fill-rule="evenodd"/>
    <path id="Path_78531" data-name="Path 78531" d="M11.232,351.563h1.423v-1.423H11.232ZM7.9,336.133H6.475v1.423H7.9Zm5.731,15.43h1.422v-1.423H13.63ZM5.5,336.133H4.079v1.423H5.5Zm18.2,4.232a3.469,3.469,0,0,0-1.236-.9,3.7,3.7,0,0,0-1.647-.3H19.771v1.348h1.236a2.039,2.039,0,0,1,.937.225,2.29,2.29,0,0,1,.748.562,2.591,2.591,0,0,1,.411.786,4.186,4.186,0,0,1,.115,1.049v4.006H16.738v1.385H24.6V343.1a5.065,5.065,0,0,0-.224-1.535A3.144,3.144,0,0,0,23.7,340.365Zm53.479,8.164h1.385v-12.4H77.182Zm-5.393-1.385H69.5a4.6,4.6,0,0,1-1.909-.336,2.661,2.661,0,0,1-1.085-1.049,4.527,4.527,0,0,0,.148-1.311v-4.418H65.273v4.643a2.73,2.73,0,0,1-.636,1.909,2.489,2.489,0,0,1-1.947.712,2.725,2.725,0,0,1-1.123-.186,3.216,3.216,0,0,1-.861-.487,2.983,2.983,0,0,1-.562-.786,2.028,2.028,0,0,1-.226-.937v-4.867H58.532v4.756a2.95,2.95,0,0,1-.188,1.085,1.672,1.672,0,0,1-.524.712,1.822,1.822,0,0,1-.75.412,2.178,2.178,0,0,1-.86.15h-2.7v-7.115H52.127v7.115H44.9l2.4-5.767a14.172,14.172,0,0,0-1.163-.936,10.96,10.96,0,0,0-1.272-.712,6.68,6.68,0,0,0-1.348-.524,4.8,4.8,0,0,0-2.66,0,9.709,9.709,0,0,0-1.348.486,8.787,8.787,0,0,0-1.274.75,9.984,9.984,0,0,0-1.162.936l2.436,5.767H34.714v-7.976H32.5a7.588,7.588,0,0,0-2.323.336,5.931,5.931,0,0,0-1.8,1.012,4.254,4.254,0,0,0-1.2,1.5,4.4,4.4,0,0,0-.413,1.871,4.027,4.027,0,0,0,.489,2.1,3.8,3.8,0,0,0,1.236,1.422,5.51,5.51,0,0,0,1.835.861,10.138,10.138,0,0,0,2.173.262h.824v.376a1.859,1.859,0,0,1-.6,1.573,2.984,2.984,0,0,1-1.761.449,5.505,5.505,0,0,1-1.16-.112,7.259,7.259,0,0,1-1.161-.412l-.412,1.311a9.876,9.876,0,0,0,1.385.45,4.648,4.648,0,0,0,1.236.15,4.017,4.017,0,0,0,2.958-.974,3.585,3.585,0,0,0,.9-2.547v-.264h21.5a3.553,3.553,0,0,0,1.8-.448,3.8,3.8,0,0,0,1.273-1.161,3.251,3.251,0,0,0,1.348,1.311,4.418,4.418,0,0,0,2.06.448,4.983,4.983,0,0,0,2.1-.412,2.936,2.936,0,0,0,1.348-1.348,2.284,2.284,0,0,0,.449.6,2.2,2.2,0,0,0,.637.486,3.057,3.057,0,0,0,.935.375,4.216,4.216,0,0,0,1.013.112v.036h4.006v-12.4H71.789Zm33.424,4.452h1.423v-1.423h-1.423Zm13.519-4.42-2.135-5.318a4.9,4.9,0,0,1,1.611-.975,4.715,4.715,0,0,1,1.761-.3,5.8,5.8,0,0,1,3.406,1.273l-2.17,5.318Zm9.813,0h-5.881l2.435-5.8c-.375-.3-.786-.6-1.2-.9a14.5,14.5,0,0,0-1.273-.748,9.248,9.248,0,0,0-1.311-.488,4.975,4.975,0,0,0-2.7,0,9.606,9.606,0,0,0-1.348.488,8.626,8.626,0,0,0-1.273.748c-.412.3-.787.6-1.161.9,2.433,5.714,2.471,5.8,2.471,5.8h-5.168v-8.014h-1.385v9.662a3.925,3.925,0,0,1-.076,1.011,1.411,1.411,0,0,1-.186.636.806.806,0,0,1-.412.375,1.5,1.5,0,0,1-.637.112,1.03,1.03,0,0,1-.336-.038,2.085,2.085,0,0,1-.375-.075l-.374,1.348a6.6,6.6,0,0,0,1.123.15,2.572,2.572,0,0,0,1.274-.262,2.053,2.053,0,0,0,.824-.674,3.886,3.886,0,0,0,.449-1.123,8.326,8.326,0,0,0,.112-1.461v-.3H129.93V336.165h-1.386Zm-28.388,4.42h1.422v-1.423h-1.422Zm-8.389-4.42H90.382a4.94,4.94,0,0,1-1.46-.225,3.251,3.251,0,0,1-1.161-.674,2.717,2.717,0,0,1-.824-1.011,3.4,3.4,0,0,1-.3-1.386,2.807,2.807,0,0,1,.337-1.385,4.412,4.412,0,0,1,.824-1.049,6.538,6.538,0,0,1,1.235-.674,4.246,4.246,0,0,1,1.348-.224h1.386Zm14.868-8.014h-1.385v8.014h-5.206v-8.014H98.66v8.014H93.155v-8.014H90.982a7.794,7.794,0,0,0-2.359.374,5.154,5.154,0,0,0-1.8.973,4.474,4.474,0,0,0-1.161,1.5,4.422,4.422,0,0,0-.412,1.872,4.672,4.672,0,0,0,.486,2.1,4.6,4.6,0,0,0,1.237,1.461,5.509,5.509,0,0,0,1.834.824,8.024,8.024,0,0,0,2.173.262h15.654ZM97.761,351.6h1.423v-1.423H97.761Zm-4.606-15.431H91.731v1.423h1.423Zm-2.436,0H89.3v1.423h1.422Zm43.218,12.358h1.387V336.165h-1.387Zm61.823-1.206a3.56,3.56,0,0,1-.786,1.161,3.948,3.948,0,0,1-1.123.748,3.756,3.756,0,0,1-1.461.262,3.035,3.035,0,0,1-1.423-.3,4.543,4.543,0,0,1-1.125-.748,3.371,3.371,0,0,1-.71-1.161,3.569,3.569,0,0,1-.3-1.385,3.749,3.749,0,0,1,.3-1.423,3.367,3.367,0,0,1,.71-1.161,4.284,4.284,0,0,1,1.125-.786,3.444,3.444,0,0,1,1.423-.262,3.757,3.757,0,0,1,1.461.262,4.146,4.146,0,0,1,1.161.748,2.979,2.979,0,0,1,.748,1.161,3.761,3.761,0,0,1,.3,1.461A3.577,3.577,0,0,1,195.759,347.318Zm-13.407,0a3.544,3.544,0,0,1-.786,1.161,3.659,3.659,0,0,1-1.161.748,3.443,3.443,0,0,1-1.423.262,3.034,3.034,0,0,1-1.423-.3,4.507,4.507,0,0,1-1.124-.748,4.108,4.108,0,0,1-.748-1.161,4.3,4.3,0,0,1-.263-1.385,4.52,4.52,0,0,1,.263-1.423,4.1,4.1,0,0,1,.748-1.161,4.279,4.279,0,0,1,1.124-.786,3.443,3.443,0,0,1,1.423-.262,3.751,3.751,0,0,1,1.461.262,4.141,4.141,0,0,1,1.161.748,3.448,3.448,0,0,1,.748,1.161,3.767,3.767,0,0,1,.3,1.461A3.583,3.583,0,0,1,182.352,347.318Zm-33.629.636h-1.349a4.58,4.58,0,0,1-1.46-.224,3.437,3.437,0,0,1-1.2-.674,2.646,2.646,0,0,1-.786-1.011,2.881,2.881,0,0,1-.3-1.386,3.272,3.272,0,0,1,.3-1.387,3.765,3.765,0,0,1,.861-1.048,5.193,5.193,0,0,1,1.2-.674,4.308,4.308,0,0,1,1.386-.225h1.349Zm53.029,0h-4.757a4.726,4.726,0,0,0,.45-2.059,5.092,5.092,0,0,0-.412-1.985,5.221,5.221,0,0,0-1.048-1.611,4.8,4.8,0,0,0-1.612-1.048,5.332,5.332,0,0,0-3.931,0,4.542,4.542,0,0,0-1.535,1.086,4.3,4.3,0,0,0-1.049,1.611,4.907,4.907,0,0,0-.412,1.947,4.626,4.626,0,0,0,.448,2.059h-4.306a4.732,4.732,0,0,0,.45-2.059,5.093,5.093,0,0,0-.412-1.985,5.225,5.225,0,0,0-1.048-1.611,4.809,4.809,0,0,0-1.611-1.048,4.944,4.944,0,0,0-1.985-.375,4.76,4.76,0,0,0-1.947.375,5.128,5.128,0,0,0-1.573,1.086,5.41,5.41,0,0,0-1.048,1.611,5.571,5.571,0,0,0-.375,1.947,5.116,5.116,0,0,0,.112,1.086,9.765,9.765,0,0,0,.3.974h-4.382v-11.01h-1.387v11.01H164.3v-2.135a5,5,0,0,0-.224-1.5,3.211,3.211,0,0,0-.637-1.235,4.709,4.709,0,0,0-1.237-.9,4.412,4.412,0,0,0-1.684-.262h-6.142L157,336.944h-1.5l-2.659,4.943a4.149,4.149,0,0,0,.185.787,3.344,3.344,0,0,0,.413.6h7.078a2.735,2.735,0,0,1,1.123.225,1.822,1.822,0,0,1,.75.524,1.617,1.617,0,0,1,.412.787,4.187,4.187,0,0,1,.112,1.01v2.135H150.108V339.94h-2.173a7.8,7.8,0,0,0-2.359.374,5.515,5.515,0,0,0-1.8.975,4.373,4.373,0,0,0-1.123,1.5,3.926,3.926,0,0,0-.412,1.873,4.653,4.653,0,0,0,.449,2.1,5.788,5.788,0,0,0,1.236,1.46,5.484,5.484,0,0,0,1.835.825,8.253,8.253,0,0,0,2.171.262h27.414a4.958,4.958,0,0,0,1.61,1.161,5.263,5.263,0,0,0,4.082,0,4.281,4.281,0,0,0,1.649-1.161h6.1a4.8,4.8,0,0,0,1.572,1.161,4.679,4.679,0,0,0,2.023.412,4.729,4.729,0,0,0,2.059-.412A4.283,4.283,0,0,0,196.1,349.3h7.041V336.944h-1.386Zm5.43,1.349h1.385V336.944h-1.385Zm-59.508-12.359H146.25v1.423h1.423Zm2.435,0h-1.423v1.423h1.423ZM14.79,339.167H13.4v7.976H7.9v-7.976H5.728a7.84,7.84,0,0,0-2.36.336,5.927,5.927,0,0,0-1.8.975,4.47,4.47,0,0,0-1.535,3.371,4.559,4.559,0,0,0,.45,2.1,4.357,4.357,0,0,0,1.273,1.46,5.287,5.287,0,0,0,1.8.825,8.491,8.491,0,0,0,2.173.3H14.79Zm-8.276,7.976H5.166a4.592,4.592,0,0,1-1.461-.224,4.052,4.052,0,0,1-1.2-.637,3.117,3.117,0,0,1-.787-1.048,2.815,2.815,0,0,1-.3-1.385,3.244,3.244,0,0,1,.3-1.349,3.412,3.412,0,0,1,.863-1.048,3.442,3.442,0,0,1,1.2-.675,4.353,4.353,0,0,1,1.387-.262H6.514Zm26.814,0H31.942a4.59,4.59,0,0,1-1.46-.224,3.343,3.343,0,0,1-1.2-.637,2.729,2.729,0,0,1-.825-1.01,3.27,3.27,0,0,1-.3-1.387,2.762,2.762,0,0,1,.336-1.348,3.31,3.31,0,0,1,.824-1.049,4.835,4.835,0,0,1,1.2-.711,4.717,4.717,0,0,1,1.422-.224h1.387Zm7.64,0-2.174-5.318a5.783,5.783,0,0,1,1.649-.974,5.411,5.411,0,0,1,1.761-.3,4.6,4.6,0,0,1,1.835.374,5.533,5.533,0,0,1,1.535.9l-2.136,5.318Zm0,0" transform="translate(-0.035 -223.978)" fill="#2d2f37" fill-rule="evenodd"/>
    <path id="Path_78532" data-name="Path 78532" d="M401.853,32.244h2.392v2.393h-2.392Zm4.784,0h2.393v2.393h-2.393ZM359.431,5.028H357.04V2.635h2.391Zm57.276,16.649a10.124,10.124,0,0,0,3.139,1.445,15.44,15.44,0,0,0,3.789.448h.6l.847-1.694V24.22a3.177,3.177,0,0,1-1.1,2.691,4.749,4.749,0,0,1-2.991.8,8.173,8.173,0,0,1-1.994-.2,12.453,12.453,0,0,1-2.044-.7l-.75,2.294a18.414,18.414,0,0,0,2.445.747,10.445,10.445,0,0,0,2.143.25q3.515,0,5.084-1.646a6.169,6.169,0,0,0,1.546-4.435V7.421h-3.789a12.731,12.731,0,0,0-4.038.6,9.66,9.66,0,0,0-3.09,1.694,7.845,7.845,0,0,0-2.044,2.592,7.946,7.946,0,0,0-.7,3.29,7.356,7.356,0,0,0,.8,3.589A6.893,6.893,0,0,0,416.707,21.677Zm0-8.425a5.3,5.3,0,0,1,1.445-1.844,6.863,6.863,0,0,1,4.435-1.6h3.839l-1.346.7V21.179h-2.443a7.936,7.936,0,0,1-2.492-.349,6.962,6.962,0,0,1-2.093-1.1,5.823,5.823,0,0,1-1.4-1.745,5.271,5.271,0,0,1-.5-2.393A4.652,4.652,0,0,1,416.707,13.252ZM364.168,5.028h-2.343V2.635h2.343ZM433.506,30.1a8.644,8.644,0,0,1-1.945-.25l.6-2.293a4.143,4.143,0,0,1,.646.15h.6a2.4,2.4,0,0,0,1.1-.2,1.181,1.181,0,0,0,.7-.6,3.113,3.113,0,0,0,.349-1.147,8.642,8.642,0,0,0,.1-1.694V7.421h2.393V24.07a12.575,12.575,0,0,1-.2,2.492,4.861,4.861,0,0,1-.8,1.945,3.649,3.649,0,0,1-1.4,1.2A5.479,5.479,0,0,1,433.506,30.1Zm-75.818-.3h4.935V28.007a1.108,1.108,0,0,1,.149.25,3.815,3.815,0,0,0,1.447,1.2,5.282,5.282,0,0,0,2.143.4h43.516V7.421h-2.393V27.46H366.461a3.783,3.783,0,0,1-1.147-.15,1.63,1.63,0,0,1-.648-.648,3.054,3.054,0,0,1-.4-1.147,14.807,14.807,0,0,1-.1-1.694V7.421h-6.429a10.935,10.935,0,0,0-11.067,11.166v.05A10.863,10.863,0,0,0,357.688,29.8Zm-8.474-11.265c0-4.936,3.489-8.873,8.474-8.873h5.583l-1.445.7V23.821a12.251,12.251,0,0,0,.2,2.492,6.74,6.74,0,0,0,.349,1.2h-4.636c-4.936,0-8.525-3.988-8.525-8.923ZM424.762-.012h1.951V1.741h-1.789a.7.7,0,0,0-.7.7v.7h3.063v1.9h-5.051V2.513A2.532,2.532,0,0,1,424.762-.012Zm0,0" transform="translate(-231.017 0.012)" fill="#2d2f37" fill-rule="evenodd"/>
    <path id="Path_78533" data-name="Path 78533" d="M104.49,20.977h2.441v22.3H104.94L89.056,23.217l1.393,3.236V43.282H88.011v-22.3H90.35L105.487,40.2l-1-2.738Zm-92.955,22.5-9.609-22.5H4.714l1.395,3.335L12.681,40.2l.646,1.543-.249-2.44L20.7,20.977h2.689l-9.609,22.5Zm42.62-22.5h2.539v22.3H54.155Zm27.086,11.2c0,5.079-3.636,9.162-8.764,9.162a8.89,8.89,0,0,1-8.813-9.212v-.05c0-5.079,3.635-9.161,8.763-9.161s8.813,4.133,8.813,9.211Zm-8.764-11.6a11.336,11.336,0,0,0-11.4,11.551v.05a11.193,11.193,0,0,0,11.353,11.5A11.316,11.316,0,0,0,83.878,32.129v-.05A11.233,11.233,0,0,0,72.477,20.578ZM50.022,37.258v.05c0,3.834-3.236,6.324-7.667,6.324a13.087,13.087,0,0,1-9.112-3.585L34.786,38.2a10.734,10.734,0,0,0,7.668,3.137c3.037,0,4.978-1.594,4.978-3.785v-.05c0-2.092-1.095-3.286-5.825-4.232-5.129-1.146-7.468-2.788-7.468-6.472v-.051c0-3.535,3.086-6.123,7.318-6.123a11.507,11.507,0,0,1,7.867,2.788l-1.444,1.942a9.933,9.933,0,0,0-6.472-2.44c-2.888,0-4.779,1.593-4.779,3.584v.1c0,2.091,1.144,3.286,6.073,4.331C47.682,32.03,50.022,33.822,50.022,37.258ZM29.359,43.282H26.82v-22.3h2.539Zm0,0" transform="translate(-1.295 -13.708)" fill="#2d2f37" fill-rule="evenodd"/>
  </g>
</svg>
